<mxfile host="Electron" modified="2023-06-16T14:12:40.437Z" agent="Mozilla/5.0 (Windows NT 10.0; Win64; x64) AppleWebKit/537.36 (KHTML, like Gecko) draw.io/21.3.7 Chrome/112.0.5615.204 Electron/24.5.0 Safari/537.36" etag="cWsq_17QzPIsCF1VsbpM" version="21.3.7" type="device" pages="5">
  <diagram name="Page-1" id="0l5mEz057MmVAF58yD2z">
    <mxGraphModel dx="482" dy="621" grid="1" gridSize="5" guides="1" tooltips="1" connect="1" arrows="1" fold="1" page="1" pageScale="1" pageWidth="850" pageHeight="1100" math="0" shadow="0">
      <root>
        <mxCell id="0" />
        <mxCell id="1" parent="0" />
        <mxCell id="bIYt_jWbCwtQeflmAYfM-1" value="&lt;font style=&quot;font-size: 24px;&quot;&gt;1- Airline&amp;nbsp;&lt;/font&gt;" style="text;html=1;align=center;verticalAlign=middle;resizable=0;points=[];autosize=1;strokeColor=none;fillColor=none;" vertex="1" parent="1">
          <mxGeometry y="80" width="120" height="45" as="geometry" />
        </mxCell>
        <mxCell id="bIYt_jWbCwtQeflmAYfM-2" value="" style="shape=table;startSize=0;container=1;collapsible=0;childLayout=tableLayout;" vertex="1" parent="1">
          <mxGeometry x="45" y="175" width="285" height="30" as="geometry" />
        </mxCell>
        <mxCell id="bIYt_jWbCwtQeflmAYfM-3" value="" style="shape=tableRow;horizontal=0;startSize=0;swimlaneHead=0;swimlaneBody=0;strokeColor=inherit;top=0;left=0;bottom=0;right=0;collapsible=0;dropTarget=0;fillColor=none;points=[[0,0.5],[1,0.5]];portConstraint=eastwest;" vertex="1" parent="bIYt_jWbCwtQeflmAYfM-2">
          <mxGeometry width="285" height="30" as="geometry" />
        </mxCell>
        <mxCell id="bIYt_jWbCwtQeflmAYfM-4" value="&lt;u&gt;ID&lt;/u&gt;" style="shape=partialRectangle;html=1;whiteSpace=wrap;connectable=0;strokeColor=inherit;overflow=hidden;fillColor=none;top=0;left=0;bottom=0;right=0;pointerEvents=1;" vertex="1" parent="bIYt_jWbCwtQeflmAYfM-3">
          <mxGeometry width="60" height="30" as="geometry">
            <mxRectangle width="60" height="30" as="alternateBounds" />
          </mxGeometry>
        </mxCell>
        <mxCell id="bIYt_jWbCwtQeflmAYfM-5" value="Name" style="shape=partialRectangle;html=1;whiteSpace=wrap;connectable=0;strokeColor=inherit;overflow=hidden;fillColor=none;top=0;left=0;bottom=0;right=0;pointerEvents=1;" vertex="1" parent="bIYt_jWbCwtQeflmAYfM-3">
          <mxGeometry x="60" width="60" height="30" as="geometry">
            <mxRectangle width="60" height="30" as="alternateBounds" />
          </mxGeometry>
        </mxCell>
        <mxCell id="bIYt_jWbCwtQeflmAYfM-6" value="Contact-Person" style="shape=partialRectangle;html=1;whiteSpace=wrap;connectable=0;strokeColor=inherit;overflow=hidden;fillColor=none;top=0;left=0;bottom=0;right=0;pointerEvents=1;" vertex="1" parent="bIYt_jWbCwtQeflmAYfM-3">
          <mxGeometry x="120" width="90" height="30" as="geometry">
            <mxRectangle width="90" height="30" as="alternateBounds" />
          </mxGeometry>
        </mxCell>
        <mxCell id="bIYt_jWbCwtQeflmAYfM-7" value="Address" style="shape=partialRectangle;html=1;whiteSpace=wrap;connectable=0;strokeColor=inherit;overflow=hidden;fillColor=none;top=0;left=0;bottom=0;right=0;pointerEvents=1;" vertex="1" parent="bIYt_jWbCwtQeflmAYfM-3">
          <mxGeometry x="210" width="75" height="30" as="geometry">
            <mxRectangle width="75" height="30" as="alternateBounds" />
          </mxGeometry>
        </mxCell>
        <mxCell id="bIYt_jWbCwtQeflmAYfM-12" value="" style="shape=table;startSize=0;container=1;collapsible=0;childLayout=tableLayout;" vertex="1" parent="1">
          <mxGeometry x="75" y="275" width="120" height="30" as="geometry" />
        </mxCell>
        <mxCell id="bIYt_jWbCwtQeflmAYfM-13" value="" style="shape=tableRow;horizontal=0;startSize=0;swimlaneHead=0;swimlaneBody=0;strokeColor=inherit;top=0;left=0;bottom=0;right=0;collapsible=0;dropTarget=0;fillColor=none;points=[[0,0.5],[1,0.5]];portConstraint=eastwest;" vertex="1" parent="bIYt_jWbCwtQeflmAYfM-12">
          <mxGeometry width="120" height="30" as="geometry" />
        </mxCell>
        <mxCell id="bIYt_jWbCwtQeflmAYfM-14" value="ID" style="shape=partialRectangle;html=1;whiteSpace=wrap;connectable=0;strokeColor=inherit;overflow=hidden;fillColor=none;top=0;left=0;bottom=0;right=0;pointerEvents=1;" vertex="1" parent="bIYt_jWbCwtQeflmAYfM-13">
          <mxGeometry width="60" height="30" as="geometry">
            <mxRectangle width="60" height="30" as="alternateBounds" />
          </mxGeometry>
        </mxCell>
        <mxCell id="bIYt_jWbCwtQeflmAYfM-15" value="Phones" style="shape=partialRectangle;html=1;whiteSpace=wrap;connectable=0;strokeColor=inherit;overflow=hidden;fillColor=none;top=0;left=0;bottom=0;right=0;pointerEvents=1;" vertex="1" parent="bIYt_jWbCwtQeflmAYfM-13">
          <mxGeometry x="60" width="60" height="30" as="geometry">
            <mxRectangle width="60" height="30" as="alternateBounds" />
          </mxGeometry>
        </mxCell>
        <mxCell id="bIYt_jWbCwtQeflmAYfM-16" value="&lt;font style=&quot;font-size: 14px;&quot;&gt;Airline&lt;/font&gt;" style="text;html=1;align=center;verticalAlign=middle;resizable=0;points=[];autosize=1;strokeColor=none;fillColor=none;" vertex="1" parent="1">
          <mxGeometry x="46" y="146" width="60" height="35" as="geometry" />
        </mxCell>
        <mxCell id="bIYt_jWbCwtQeflmAYfM-17" value="&lt;font style=&quot;font-size: 14px;&quot;&gt;Airline-Phones&lt;/font&gt;" style="text;html=1;align=center;verticalAlign=middle;resizable=0;points=[];autosize=1;strokeColor=none;fillColor=none;" vertex="1" parent="1">
          <mxGeometry x="70" y="245" width="110" height="35" as="geometry" />
        </mxCell>
        <mxCell id="bIYt_jWbCwtQeflmAYfM-18" value="" style="endArrow=none;dashed=1;html=1;rounded=0;strokeColor=#CC0000;" edge="1" parent="1">
          <mxGeometry width="50" height="50" relative="1" as="geometry">
            <mxPoint x="83.5" y="300" as="sourcePoint" />
            <mxPoint x="128.5" y="300" as="targetPoint" />
          </mxGeometry>
        </mxCell>
        <mxCell id="bIYt_jWbCwtQeflmAYfM-19" value="" style="endArrow=none;dashed=1;html=1;rounded=0;strokeColor=#CC0000;" edge="1" parent="1">
          <mxGeometry width="50" height="50" relative="1" as="geometry">
            <mxPoint x="140" y="300" as="sourcePoint" />
            <mxPoint x="185" y="300" as="targetPoint" />
          </mxGeometry>
        </mxCell>
        <mxCell id="bIYt_jWbCwtQeflmAYfM-20" value="" style="endArrow=none;html=1;rounded=0;" edge="1" parent="1">
          <mxGeometry width="50" height="50" relative="1" as="geometry">
            <mxPoint x="85" y="310" as="sourcePoint" />
            <mxPoint x="180" y="310" as="targetPoint" />
          </mxGeometry>
        </mxCell>
        <mxCell id="bIYt_jWbCwtQeflmAYfM-21" value="" style="curved=1;endArrow=classic;html=1;rounded=0;exitX=0;exitY=0.5;exitDx=0;exitDy=0;entryX=0.108;entryY=0.933;entryDx=0;entryDy=0;entryPerimeter=0;" edge="1" parent="1" source="bIYt_jWbCwtQeflmAYfM-13" target="bIYt_jWbCwtQeflmAYfM-3">
          <mxGeometry width="50" height="50" relative="1" as="geometry">
            <mxPoint x="-15" y="265" as="sourcePoint" />
            <mxPoint x="35" y="215" as="targetPoint" />
            <Array as="points">
              <mxPoint x="30" y="230" />
            </Array>
          </mxGeometry>
        </mxCell>
        <mxCell id="bIYt_jWbCwtQeflmAYfM-22" value="" style="shape=table;startSize=0;container=1;collapsible=0;childLayout=tableLayout;" vertex="1" parent="1">
          <mxGeometry x="55" y="475" width="485" height="35" as="geometry" />
        </mxCell>
        <mxCell id="bIYt_jWbCwtQeflmAYfM-23" value="" style="shape=tableRow;horizontal=0;startSize=0;swimlaneHead=0;swimlaneBody=0;strokeColor=inherit;top=0;left=0;bottom=0;right=0;collapsible=0;dropTarget=0;fillColor=none;points=[[0,0.5],[1,0.5]];portConstraint=eastwest;" vertex="1" parent="bIYt_jWbCwtQeflmAYfM-22">
          <mxGeometry width="485" height="35" as="geometry" />
        </mxCell>
        <mxCell id="bIYt_jWbCwtQeflmAYfM-73" value="Air-ID" style="shape=partialRectangle;html=1;whiteSpace=wrap;connectable=0;strokeColor=inherit;overflow=hidden;fillColor=none;top=0;left=0;bottom=0;right=0;pointerEvents=1;" vertex="1" parent="bIYt_jWbCwtQeflmAYfM-23">
          <mxGeometry width="50" height="35" as="geometry">
            <mxRectangle width="50" height="35" as="alternateBounds" />
          </mxGeometry>
        </mxCell>
        <mxCell id="bIYt_jWbCwtQeflmAYfM-24" value="&lt;u&gt;Crew-ID&lt;/u&gt;" style="shape=partialRectangle;html=1;whiteSpace=wrap;connectable=0;strokeColor=inherit;overflow=hidden;fillColor=none;top=0;left=0;bottom=0;right=0;pointerEvents=1;" vertex="1" parent="bIYt_jWbCwtQeflmAYfM-23">
          <mxGeometry x="50" width="50" height="35" as="geometry">
            <mxRectangle width="50" height="35" as="alternateBounds" />
          </mxGeometry>
        </mxCell>
        <mxCell id="bIYt_jWbCwtQeflmAYfM-25" value="Model" style="shape=partialRectangle;html=1;whiteSpace=wrap;connectable=0;strokeColor=inherit;overflow=hidden;fillColor=none;top=0;left=0;bottom=0;right=0;pointerEvents=1;" vertex="1" parent="bIYt_jWbCwtQeflmAYfM-23">
          <mxGeometry x="100" width="60" height="35" as="geometry">
            <mxRectangle width="60" height="35" as="alternateBounds" />
          </mxGeometry>
        </mxCell>
        <mxCell id="bIYt_jWbCwtQeflmAYfM-26" value="Capacity" style="shape=partialRectangle;html=1;whiteSpace=wrap;connectable=0;strokeColor=inherit;overflow=hidden;fillColor=none;top=0;left=0;bottom=0;right=0;pointerEvents=1;" vertex="1" parent="bIYt_jWbCwtQeflmAYfM-23">
          <mxGeometry x="160" width="67" height="35" as="geometry">
            <mxRectangle width="67" height="35" as="alternateBounds" />
          </mxGeometry>
        </mxCell>
        <mxCell id="bIYt_jWbCwtQeflmAYfM-27" value="Major-pilot" style="shape=partialRectangle;html=1;whiteSpace=wrap;connectable=0;strokeColor=inherit;overflow=hidden;fillColor=none;top=0;left=0;bottom=0;right=0;pointerEvents=1;" vertex="1" parent="bIYt_jWbCwtQeflmAYfM-23">
          <mxGeometry x="227" width="68" height="35" as="geometry">
            <mxRectangle width="68" height="35" as="alternateBounds" />
          </mxGeometry>
        </mxCell>
        <mxCell id="bIYt_jWbCwtQeflmAYfM-28" value="Assist_Pilot" style="shape=partialRectangle;html=1;whiteSpace=wrap;connectable=0;strokeColor=inherit;overflow=hidden;fillColor=none;top=0;left=0;bottom=0;right=0;pointerEvents=1;" vertex="1" parent="bIYt_jWbCwtQeflmAYfM-23">
          <mxGeometry x="295" width="70" height="35" as="geometry">
            <mxRectangle width="70" height="35" as="alternateBounds" />
          </mxGeometry>
        </mxCell>
        <mxCell id="bIYt_jWbCwtQeflmAYfM-29" value="Host_1" style="shape=partialRectangle;html=1;whiteSpace=wrap;connectable=0;strokeColor=inherit;overflow=hidden;fillColor=none;top=0;left=0;bottom=0;right=0;pointerEvents=1;" vertex="1" parent="bIYt_jWbCwtQeflmAYfM-23">
          <mxGeometry x="365" width="60" height="35" as="geometry">
            <mxRectangle width="60" height="35" as="alternateBounds" />
          </mxGeometry>
        </mxCell>
        <mxCell id="bIYt_jWbCwtQeflmAYfM-30" value="Host_2" style="shape=partialRectangle;html=1;whiteSpace=wrap;connectable=0;strokeColor=inherit;overflow=hidden;fillColor=none;top=0;left=0;bottom=0;right=0;pointerEvents=1;" vertex="1" parent="bIYt_jWbCwtQeflmAYfM-23">
          <mxGeometry x="425" width="60" height="35" as="geometry">
            <mxRectangle width="60" height="35" as="alternateBounds" />
          </mxGeometry>
        </mxCell>
        <mxCell id="bIYt_jWbCwtQeflmAYfM-31" value="&lt;font style=&quot;font-size: 14px;&quot;&gt;Aircraft- Crew&lt;/font&gt;" style="text;html=1;align=center;verticalAlign=middle;resizable=0;points=[];autosize=1;strokeColor=none;fillColor=none;" vertex="1" parent="1">
          <mxGeometry x="50" y="445" width="105" height="35" as="geometry" />
        </mxCell>
        <mxCell id="bIYt_jWbCwtQeflmAYfM-32" value="" style="shape=table;startSize=0;container=1;collapsible=0;childLayout=tableLayout;" vertex="1" parent="1">
          <mxGeometry x="50" y="375" width="290" height="35" as="geometry" />
        </mxCell>
        <mxCell id="bIYt_jWbCwtQeflmAYfM-33" value="" style="shape=tableRow;horizontal=0;startSize=0;swimlaneHead=0;swimlaneBody=0;strokeColor=inherit;top=0;left=0;bottom=0;right=0;collapsible=0;dropTarget=0;fillColor=none;points=[[0,0.5],[1,0.5]];portConstraint=eastwest;" vertex="1" parent="bIYt_jWbCwtQeflmAYfM-32">
          <mxGeometry width="290" height="35" as="geometry" />
        </mxCell>
        <mxCell id="bIYt_jWbCwtQeflmAYfM-67" value="Air-ID" style="shape=partialRectangle;html=1;whiteSpace=wrap;connectable=0;strokeColor=inherit;overflow=hidden;fillColor=none;top=0;left=0;bottom=0;right=0;pointerEvents=1;" vertex="1" parent="bIYt_jWbCwtQeflmAYfM-33">
          <mxGeometry width="50" height="35" as="geometry">
            <mxRectangle width="50" height="35" as="alternateBounds" />
          </mxGeometry>
        </mxCell>
        <mxCell id="bIYt_jWbCwtQeflmAYfM-34" value="&lt;u&gt;T-ID&lt;/u&gt;" style="shape=partialRectangle;html=1;whiteSpace=wrap;connectable=0;strokeColor=inherit;overflow=hidden;fillColor=none;top=0;left=0;bottom=0;right=0;pointerEvents=1;" vertex="1" parent="bIYt_jWbCwtQeflmAYfM-33">
          <mxGeometry x="50" width="50" height="35" as="geometry">
            <mxRectangle width="50" height="35" as="alternateBounds" />
          </mxGeometry>
        </mxCell>
        <mxCell id="bIYt_jWbCwtQeflmAYfM-35" value="Description" style="shape=partialRectangle;html=1;whiteSpace=wrap;connectable=0;strokeColor=inherit;overflow=hidden;fillColor=none;top=0;left=0;bottom=0;right=0;pointerEvents=1;" vertex="1" parent="bIYt_jWbCwtQeflmAYfM-33">
          <mxGeometry x="100" width="80" height="35" as="geometry">
            <mxRectangle width="80" height="35" as="alternateBounds" />
          </mxGeometry>
        </mxCell>
        <mxCell id="bIYt_jWbCwtQeflmAYfM-36" value="Date" style="shape=partialRectangle;html=1;whiteSpace=wrap;connectable=0;strokeColor=inherit;overflow=hidden;fillColor=none;top=0;left=0;bottom=0;right=0;pointerEvents=1;" vertex="1" parent="bIYt_jWbCwtQeflmAYfM-33">
          <mxGeometry x="180" width="50" height="35" as="geometry">
            <mxRectangle width="50" height="35" as="alternateBounds" />
          </mxGeometry>
        </mxCell>
        <mxCell id="bIYt_jWbCwtQeflmAYfM-37" value="Amount" style="shape=partialRectangle;html=1;whiteSpace=wrap;connectable=0;strokeColor=inherit;overflow=hidden;fillColor=none;top=0;left=0;bottom=0;right=0;pointerEvents=1;" vertex="1" parent="bIYt_jWbCwtQeflmAYfM-33">
          <mxGeometry x="230" width="60" height="35" as="geometry">
            <mxRectangle width="60" height="35" as="alternateBounds" />
          </mxGeometry>
        </mxCell>
        <mxCell id="bIYt_jWbCwtQeflmAYfM-38" value="&lt;font style=&quot;font-size: 14px;&quot;&gt;Transaction&lt;/font&gt;" style="text;html=1;align=center;verticalAlign=middle;resizable=0;points=[];autosize=1;strokeColor=none;fillColor=none;" vertex="1" parent="1">
          <mxGeometry x="30" y="335" width="95" height="35" as="geometry" />
        </mxCell>
        <mxCell id="bIYt_jWbCwtQeflmAYfM-39" value="" style="shape=table;startSize=0;container=1;collapsible=0;childLayout=tableLayout;" vertex="1" parent="1">
          <mxGeometry x="298" y="255" width="540" height="35" as="geometry" />
        </mxCell>
        <mxCell id="bIYt_jWbCwtQeflmAYfM-40" value="" style="shape=tableRow;horizontal=0;startSize=0;swimlaneHead=0;swimlaneBody=0;strokeColor=inherit;top=0;left=0;bottom=0;right=0;collapsible=0;dropTarget=0;fillColor=none;points=[[0,0.5],[1,0.5]];portConstraint=eastwest;" vertex="1" parent="bIYt_jWbCwtQeflmAYfM-39">
          <mxGeometry width="540" height="35" as="geometry" />
        </mxCell>
        <mxCell id="bIYt_jWbCwtQeflmAYfM-70" value="Air-ID" style="shape=partialRectangle;html=1;whiteSpace=wrap;connectable=0;strokeColor=inherit;overflow=hidden;fillColor=none;top=0;left=0;bottom=0;right=0;pointerEvents=1;" vertex="1" parent="bIYt_jWbCwtQeflmAYfM-40">
          <mxGeometry width="60" height="35" as="geometry">
            <mxRectangle width="60" height="35" as="alternateBounds" />
          </mxGeometry>
        </mxCell>
        <mxCell id="bIYt_jWbCwtQeflmAYfM-41" value="&lt;u&gt;E-ID&lt;/u&gt;" style="shape=partialRectangle;html=1;whiteSpace=wrap;connectable=0;strokeColor=inherit;overflow=hidden;fillColor=none;top=0;left=0;bottom=0;right=0;pointerEvents=1;" vertex="1" parent="bIYt_jWbCwtQeflmAYfM-40">
          <mxGeometry x="60" width="60" height="35" as="geometry">
            <mxRectangle width="60" height="35" as="alternateBounds" />
          </mxGeometry>
        </mxCell>
        <mxCell id="bIYt_jWbCwtQeflmAYfM-42" value="Name" style="shape=partialRectangle;html=1;whiteSpace=wrap;connectable=0;strokeColor=inherit;overflow=hidden;fillColor=none;top=0;left=0;bottom=0;right=0;pointerEvents=1;" vertex="1" parent="bIYt_jWbCwtQeflmAYfM-40">
          <mxGeometry x="120" width="60" height="35" as="geometry">
            <mxRectangle width="60" height="35" as="alternateBounds" />
          </mxGeometry>
        </mxCell>
        <mxCell id="bIYt_jWbCwtQeflmAYfM-43" value="Address" style="shape=partialRectangle;html=1;whiteSpace=wrap;connectable=0;strokeColor=inherit;overflow=hidden;fillColor=none;top=0;left=0;bottom=0;right=0;pointerEvents=1;" vertex="1" parent="bIYt_jWbCwtQeflmAYfM-40">
          <mxGeometry x="180" width="60" height="35" as="geometry">
            <mxRectangle width="60" height="35" as="alternateBounds" />
          </mxGeometry>
        </mxCell>
        <mxCell id="bIYt_jWbCwtQeflmAYfM-44" value="Position" style="shape=partialRectangle;html=1;whiteSpace=wrap;connectable=0;strokeColor=inherit;overflow=hidden;fillColor=none;top=0;left=0;bottom=0;right=0;pointerEvents=1;" vertex="1" parent="bIYt_jWbCwtQeflmAYfM-40">
          <mxGeometry x="240" width="60" height="35" as="geometry">
            <mxRectangle width="60" height="35" as="alternateBounds" />
          </mxGeometry>
        </mxCell>
        <mxCell id="bIYt_jWbCwtQeflmAYfM-45" value="Year" style="shape=partialRectangle;html=1;whiteSpace=wrap;connectable=0;strokeColor=inherit;overflow=hidden;fillColor=none;top=0;left=0;bottom=0;right=0;pointerEvents=1;" vertex="1" parent="bIYt_jWbCwtQeflmAYfM-40">
          <mxGeometry x="300" width="60" height="35" as="geometry">
            <mxRectangle width="60" height="35" as="alternateBounds" />
          </mxGeometry>
        </mxCell>
        <mxCell id="bIYt_jWbCwtQeflmAYfM-46" value="Month" style="shape=partialRectangle;html=1;whiteSpace=wrap;connectable=0;strokeColor=inherit;overflow=hidden;fillColor=none;top=0;left=0;bottom=0;right=0;pointerEvents=1;" vertex="1" parent="bIYt_jWbCwtQeflmAYfM-40">
          <mxGeometry x="360" width="60" height="35" as="geometry">
            <mxRectangle width="60" height="35" as="alternateBounds" />
          </mxGeometry>
        </mxCell>
        <mxCell id="bIYt_jWbCwtQeflmAYfM-47" value="Day" style="shape=partialRectangle;html=1;whiteSpace=wrap;connectable=0;strokeColor=inherit;overflow=hidden;fillColor=none;top=0;left=0;bottom=0;right=0;pointerEvents=1;" vertex="1" parent="bIYt_jWbCwtQeflmAYfM-40">
          <mxGeometry x="420" width="60" height="35" as="geometry">
            <mxRectangle width="60" height="35" as="alternateBounds" />
          </mxGeometry>
        </mxCell>
        <mxCell id="bIYt_jWbCwtQeflmAYfM-48" value="Gender" style="shape=partialRectangle;html=1;whiteSpace=wrap;connectable=0;strokeColor=inherit;overflow=hidden;fillColor=none;top=0;left=0;bottom=0;right=0;pointerEvents=1;" vertex="1" parent="bIYt_jWbCwtQeflmAYfM-40">
          <mxGeometry x="480" width="60" height="35" as="geometry">
            <mxRectangle width="60" height="35" as="alternateBounds" />
          </mxGeometry>
        </mxCell>
        <mxCell id="bIYt_jWbCwtQeflmAYfM-49" value="&lt;font style=&quot;font-size: 14px;&quot;&gt;Employee&lt;/font&gt;" style="text;html=1;align=center;verticalAlign=middle;resizable=0;points=[];autosize=1;strokeColor=none;fillColor=none;" vertex="1" parent="1">
          <mxGeometry x="290" y="220" width="85" height="35" as="geometry" />
        </mxCell>
        <mxCell id="bIYt_jWbCwtQeflmAYfM-50" value="" style="shape=table;startSize=0;container=1;collapsible=0;childLayout=tableLayout;" vertex="1" parent="1">
          <mxGeometry x="665" y="340" width="150" height="35" as="geometry" />
        </mxCell>
        <mxCell id="bIYt_jWbCwtQeflmAYfM-51" value="" style="shape=tableRow;horizontal=0;startSize=0;swimlaneHead=0;swimlaneBody=0;strokeColor=inherit;top=0;left=0;bottom=0;right=0;collapsible=0;dropTarget=0;fillColor=none;points=[[0,0.5],[1,0.5]];portConstraint=eastwest;" vertex="1" parent="bIYt_jWbCwtQeflmAYfM-50">
          <mxGeometry width="150" height="35" as="geometry" />
        </mxCell>
        <mxCell id="bIYt_jWbCwtQeflmAYfM-52" value="E-ID" style="shape=partialRectangle;html=1;whiteSpace=wrap;connectable=0;strokeColor=inherit;overflow=hidden;fillColor=none;top=0;left=0;bottom=0;right=0;pointerEvents=1;" vertex="1" parent="bIYt_jWbCwtQeflmAYfM-51">
          <mxGeometry width="60" height="35" as="geometry">
            <mxRectangle width="60" height="35" as="alternateBounds" />
          </mxGeometry>
        </mxCell>
        <mxCell id="bIYt_jWbCwtQeflmAYfM-53" value="Qualifications" style="shape=partialRectangle;html=1;whiteSpace=wrap;connectable=0;strokeColor=inherit;overflow=hidden;fillColor=none;top=0;left=0;bottom=0;right=0;pointerEvents=1;" vertex="1" parent="bIYt_jWbCwtQeflmAYfM-51">
          <mxGeometry x="60" width="90" height="35" as="geometry">
            <mxRectangle width="90" height="35" as="alternateBounds" />
          </mxGeometry>
        </mxCell>
        <mxCell id="bIYt_jWbCwtQeflmAYfM-54" value="&lt;font style=&quot;font-size: 14px;&quot;&gt;Emp-Qualifications&lt;/font&gt;" style="text;html=1;align=center;verticalAlign=middle;resizable=0;points=[];autosize=1;strokeColor=none;fillColor=none;" vertex="1" parent="1">
          <mxGeometry x="670" y="305" width="140" height="35" as="geometry" />
        </mxCell>
        <mxCell id="bIYt_jWbCwtQeflmAYfM-55" value="" style="endArrow=none;dashed=1;html=1;rounded=0;strokeColor=#FF0000;" edge="1" parent="1">
          <mxGeometry width="50" height="50" relative="1" as="geometry">
            <mxPoint x="677.5" y="370" as="sourcePoint" />
            <mxPoint x="802.5" y="370" as="targetPoint" />
          </mxGeometry>
        </mxCell>
        <mxCell id="bIYt_jWbCwtQeflmAYfM-56" value="" style="endArrow=none;html=1;rounded=0;" edge="1" parent="1">
          <mxGeometry width="50" height="50" relative="1" as="geometry">
            <mxPoint x="675" y="380" as="sourcePoint" />
            <mxPoint x="805" y="380" as="targetPoint" />
          </mxGeometry>
        </mxCell>
        <mxCell id="bIYt_jWbCwtQeflmAYfM-57" value="" style="curved=1;endArrow=classic;html=1;rounded=0;exitX=0;exitY=0.5;exitDx=0;exitDy=0;entryX=0.156;entryY=1.023;entryDx=0;entryDy=0;entryPerimeter=0;" edge="1" parent="1" source="bIYt_jWbCwtQeflmAYfM-51" target="bIYt_jWbCwtQeflmAYfM-40">
          <mxGeometry width="50" height="50" relative="1" as="geometry">
            <mxPoint x="453" y="430" as="sourcePoint" />
            <mxPoint x="460" y="400" as="targetPoint" />
            <Array as="points">
              <mxPoint x="575" y="315" />
              <mxPoint x="550" y="350" />
            </Array>
          </mxGeometry>
        </mxCell>
        <mxCell id="bIYt_jWbCwtQeflmAYfM-58" value="" style="shape=table;startSize=0;container=1;collapsible=0;childLayout=tableLayout;" vertex="1" parent="1">
          <mxGeometry x="225" y="595" width="320" height="35" as="geometry" />
        </mxCell>
        <mxCell id="bIYt_jWbCwtQeflmAYfM-59" value="" style="shape=tableRow;horizontal=0;startSize=0;swimlaneHead=0;swimlaneBody=0;strokeColor=inherit;top=0;left=0;bottom=0;right=0;collapsible=0;dropTarget=0;fillColor=none;points=[[0,0.5],[1,0.5]];portConstraint=eastwest;" vertex="1" parent="bIYt_jWbCwtQeflmAYfM-58">
          <mxGeometry width="320" height="35" as="geometry" />
        </mxCell>
        <mxCell id="bIYt_jWbCwtQeflmAYfM-60" value="&lt;u&gt;R-ID&lt;/u&gt;" style="shape=partialRectangle;html=1;whiteSpace=wrap;connectable=0;strokeColor=inherit;overflow=hidden;fillColor=none;top=0;left=0;bottom=0;right=0;pointerEvents=1;" vertex="1" parent="bIYt_jWbCwtQeflmAYfM-59">
          <mxGeometry width="60" height="35" as="geometry">
            <mxRectangle width="60" height="35" as="alternateBounds" />
          </mxGeometry>
        </mxCell>
        <mxCell id="bIYt_jWbCwtQeflmAYfM-61" value="Origin" style="shape=partialRectangle;html=1;whiteSpace=wrap;connectable=0;strokeColor=inherit;overflow=hidden;fillColor=none;top=0;left=0;bottom=0;right=0;pointerEvents=1;" vertex="1" parent="bIYt_jWbCwtQeflmAYfM-59">
          <mxGeometry x="60" width="55" height="35" as="geometry">
            <mxRectangle width="55" height="35" as="alternateBounds" />
          </mxGeometry>
        </mxCell>
        <mxCell id="bIYt_jWbCwtQeflmAYfM-62" value="Destination" style="shape=partialRectangle;html=1;whiteSpace=wrap;connectable=0;strokeColor=inherit;overflow=hidden;fillColor=none;top=0;left=0;bottom=0;right=0;pointerEvents=1;" vertex="1" parent="bIYt_jWbCwtQeflmAYfM-59">
          <mxGeometry x="115" width="70" height="35" as="geometry">
            <mxRectangle width="70" height="35" as="alternateBounds" />
          </mxGeometry>
        </mxCell>
        <mxCell id="bIYt_jWbCwtQeflmAYfM-63" value="Distance" style="shape=partialRectangle;html=1;whiteSpace=wrap;connectable=0;strokeColor=inherit;overflow=hidden;fillColor=none;top=0;left=0;bottom=0;right=0;pointerEvents=1;" vertex="1" parent="bIYt_jWbCwtQeflmAYfM-59">
          <mxGeometry x="185" width="55" height="35" as="geometry">
            <mxRectangle width="55" height="35" as="alternateBounds" />
          </mxGeometry>
        </mxCell>
        <mxCell id="bIYt_jWbCwtQeflmAYfM-64" value="Classification" style="shape=partialRectangle;html=1;whiteSpace=wrap;connectable=0;strokeColor=inherit;overflow=hidden;fillColor=none;top=0;left=0;bottom=0;right=0;pointerEvents=1;" vertex="1" parent="bIYt_jWbCwtQeflmAYfM-59">
          <mxGeometry x="240" width="80" height="35" as="geometry">
            <mxRectangle width="80" height="35" as="alternateBounds" />
          </mxGeometry>
        </mxCell>
        <mxCell id="bIYt_jWbCwtQeflmAYfM-66" value="&lt;font style=&quot;font-size: 14px;&quot;&gt;Route&lt;/font&gt;" style="text;html=1;align=center;verticalAlign=middle;resizable=0;points=[];autosize=1;strokeColor=none;fillColor=none;" vertex="1" parent="1">
          <mxGeometry x="221" y="556" width="60" height="35" as="geometry" />
        </mxCell>
        <mxCell id="bIYt_jWbCwtQeflmAYfM-68" value="" style="endArrow=none;dashed=1;html=1;rounded=0;strokeColor=#CC0000;" edge="1" parent="1">
          <mxGeometry width="50" height="50" relative="1" as="geometry">
            <mxPoint x="55" y="405" as="sourcePoint" />
            <mxPoint x="94" y="405" as="targetPoint" />
          </mxGeometry>
        </mxCell>
        <mxCell id="bIYt_jWbCwtQeflmAYfM-69" value="" style="curved=1;endArrow=classic;html=1;rounded=0;exitX=0;exitY=0.5;exitDx=0;exitDy=0;entryX=0.01;entryY=0.747;entryDx=0;entryDy=0;entryPerimeter=0;" edge="1" parent="1" source="bIYt_jWbCwtQeflmAYfM-33" target="bIYt_jWbCwtQeflmAYfM-3">
          <mxGeometry width="50" height="50" relative="1" as="geometry">
            <mxPoint x="240" y="345" as="sourcePoint" />
            <mxPoint x="15" y="215" as="targetPoint" />
            <Array as="points">
              <mxPoint x="35" y="365" />
              <mxPoint x="30" y="275" />
            </Array>
          </mxGeometry>
        </mxCell>
        <mxCell id="bIYt_jWbCwtQeflmAYfM-71" value="" style="endArrow=none;dashed=1;html=1;rounded=0;strokeColor=#CC0000;" edge="1" parent="1">
          <mxGeometry width="50" height="50" relative="1" as="geometry">
            <mxPoint x="308" y="280" as="sourcePoint" />
            <mxPoint x="348" y="280" as="targetPoint" />
            <Array as="points">
              <mxPoint x="335" y="280" />
            </Array>
          </mxGeometry>
        </mxCell>
        <mxCell id="bIYt_jWbCwtQeflmAYfM-72" value="" style="curved=1;endArrow=classic;html=1;rounded=0;entryX=0.128;entryY=1.04;entryDx=0;entryDy=0;entryPerimeter=0;exitX=0;exitY=0.5;exitDx=0;exitDy=0;" edge="1" parent="1" source="bIYt_jWbCwtQeflmAYfM-40" target="bIYt_jWbCwtQeflmAYfM-3">
          <mxGeometry width="50" height="50" relative="1" as="geometry">
            <mxPoint x="265" y="265" as="sourcePoint" />
            <mxPoint x="315" y="215" as="targetPoint" />
            <Array as="points">
              <mxPoint x="230" y="255" />
              <mxPoint x="255" y="235" />
            </Array>
          </mxGeometry>
        </mxCell>
        <mxCell id="bIYt_jWbCwtQeflmAYfM-74" value="" style="endArrow=none;dashed=1;html=1;rounded=0;strokeColor=#CC0000;" edge="1" parent="1">
          <mxGeometry width="50" height="50" relative="1" as="geometry">
            <mxPoint x="60" y="505" as="sourcePoint" />
            <mxPoint x="100" y="505" as="targetPoint" />
          </mxGeometry>
        </mxCell>
        <mxCell id="bIYt_jWbCwtQeflmAYfM-75" value="" style="curved=1;endArrow=classic;html=1;rounded=0;exitX=0.003;exitY=0.846;exitDx=0;exitDy=0;entryX=0;entryY=0.5;entryDx=0;entryDy=0;exitPerimeter=0;" edge="1" parent="1" source="bIYt_jWbCwtQeflmAYfM-23" target="bIYt_jWbCwtQeflmAYfM-3">
          <mxGeometry width="50" height="50" relative="1" as="geometry">
            <mxPoint x="55" y="398" as="sourcePoint" />
            <mxPoint x="53" y="202" as="targetPoint" />
            <Array as="points">
              <mxPoint x="25" y="375" />
              <mxPoint x="25" y="280" />
            </Array>
          </mxGeometry>
        </mxCell>
        <mxCell id="bIYt_jWbCwtQeflmAYfM-76" value="" style="shape=table;startSize=0;container=1;collapsible=0;childLayout=tableLayout;" vertex="1" parent="1">
          <mxGeometry x="65" y="730" width="455" height="35" as="geometry" />
        </mxCell>
        <mxCell id="bIYt_jWbCwtQeflmAYfM-77" value="" style="shape=tableRow;horizontal=0;startSize=0;swimlaneHead=0;swimlaneBody=0;strokeColor=inherit;top=0;left=0;bottom=0;right=0;collapsible=0;dropTarget=0;fillColor=none;points=[[0,0.5],[1,0.5]];portConstraint=eastwest;" vertex="1" parent="bIYt_jWbCwtQeflmAYfM-76">
          <mxGeometry width="455" height="35" as="geometry" />
        </mxCell>
        <mxCell id="bIYt_jWbCwtQeflmAYfM-78" value="Crew-ID" style="shape=partialRectangle;html=1;whiteSpace=wrap;connectable=0;strokeColor=inherit;overflow=hidden;fillColor=none;top=0;left=0;bottom=0;right=0;pointerEvents=1;" vertex="1" parent="bIYt_jWbCwtQeflmAYfM-77">
          <mxGeometry width="60" height="35" as="geometry">
            <mxRectangle width="60" height="35" as="alternateBounds" />
          </mxGeometry>
        </mxCell>
        <mxCell id="bIYt_jWbCwtQeflmAYfM-79" value="R-ID" style="shape=partialRectangle;html=1;whiteSpace=wrap;connectable=0;strokeColor=inherit;overflow=hidden;fillColor=none;top=0;left=0;bottom=0;right=0;pointerEvents=1;" vertex="1" parent="bIYt_jWbCwtQeflmAYfM-77">
          <mxGeometry x="60" width="60" height="35" as="geometry">
            <mxRectangle width="60" height="35" as="alternateBounds" />
          </mxGeometry>
        </mxCell>
        <mxCell id="bIYt_jWbCwtQeflmAYfM-80" value="Num-of-Passengers" style="shape=partialRectangle;html=1;whiteSpace=wrap;connectable=0;strokeColor=inherit;overflow=hidden;fillColor=none;top=0;left=0;bottom=0;right=0;pointerEvents=1;" vertex="1" parent="bIYt_jWbCwtQeflmAYfM-77">
          <mxGeometry x="120" width="90" height="35" as="geometry">
            <mxRectangle width="90" height="35" as="alternateBounds" />
          </mxGeometry>
        </mxCell>
        <mxCell id="bIYt_jWbCwtQeflmAYfM-81" value="Price" style="shape=partialRectangle;html=1;whiteSpace=wrap;connectable=0;strokeColor=inherit;overflow=hidden;fillColor=none;top=0;left=0;bottom=0;right=0;pointerEvents=1;" vertex="1" parent="bIYt_jWbCwtQeflmAYfM-77">
          <mxGeometry x="210" width="45" height="35" as="geometry">
            <mxRectangle width="45" height="35" as="alternateBounds" />
          </mxGeometry>
        </mxCell>
        <mxCell id="bIYt_jWbCwtQeflmAYfM-82" value="Departure" style="shape=partialRectangle;html=1;whiteSpace=wrap;connectable=0;strokeColor=inherit;overflow=hidden;fillColor=none;top=0;left=0;bottom=0;right=0;pointerEvents=1;" vertex="1" parent="bIYt_jWbCwtQeflmAYfM-77">
          <mxGeometry x="255" width="65" height="35" as="geometry">
            <mxRectangle width="65" height="35" as="alternateBounds" />
          </mxGeometry>
        </mxCell>
        <mxCell id="bIYt_jWbCwtQeflmAYfM-83" value="Arrival" style="shape=partialRectangle;html=1;whiteSpace=wrap;connectable=0;strokeColor=inherit;overflow=hidden;fillColor=none;top=0;left=0;bottom=0;right=0;pointerEvents=1;" vertex="1" parent="bIYt_jWbCwtQeflmAYfM-77">
          <mxGeometry x="320" width="55" height="35" as="geometry">
            <mxRectangle width="55" height="35" as="alternateBounds" />
          </mxGeometry>
        </mxCell>
        <mxCell id="bIYt_jWbCwtQeflmAYfM-84" value="Duration" style="shape=partialRectangle;html=1;whiteSpace=wrap;connectable=0;strokeColor=inherit;overflow=hidden;fillColor=none;top=0;left=0;bottom=0;right=0;pointerEvents=1;" vertex="1" parent="bIYt_jWbCwtQeflmAYfM-77">
          <mxGeometry x="375" width="80" height="35" as="geometry">
            <mxRectangle width="80" height="35" as="alternateBounds" />
          </mxGeometry>
        </mxCell>
        <mxCell id="bIYt_jWbCwtQeflmAYfM-85" value="&lt;font style=&quot;font-size: 14px;&quot;&gt;Aircraft-Assignment&lt;/font&gt;" style="text;html=1;align=center;verticalAlign=middle;resizable=0;points=[];autosize=1;strokeColor=none;fillColor=none;" vertex="1" parent="1">
          <mxGeometry x="55" y="695" width="145" height="35" as="geometry" />
        </mxCell>
        <mxCell id="bIYt_jWbCwtQeflmAYfM-86" value="" style="endArrow=none;dashed=1;html=1;rounded=0;strokeColor=#CC0000;" edge="1" parent="1">
          <mxGeometry width="50" height="50" relative="1" as="geometry">
            <mxPoint x="75" y="760" as="sourcePoint" />
            <mxPoint x="115" y="760" as="targetPoint" />
          </mxGeometry>
        </mxCell>
        <mxCell id="bIYt_jWbCwtQeflmAYfM-87" value="" style="endArrow=none;dashed=1;html=1;rounded=0;strokeColor=#CC0000;" edge="1" parent="1">
          <mxGeometry width="50" height="50" relative="1" as="geometry">
            <mxPoint x="135" y="760" as="sourcePoint" />
            <mxPoint x="175" y="760" as="targetPoint" />
          </mxGeometry>
        </mxCell>
        <mxCell id="bIYt_jWbCwtQeflmAYfM-88" value="" style="endArrow=none;html=1;rounded=0;" edge="1" parent="1">
          <mxGeometry width="50" height="50" relative="1" as="geometry">
            <mxPoint x="70" y="770" as="sourcePoint" />
            <mxPoint x="171" y="770" as="targetPoint" />
          </mxGeometry>
        </mxCell>
        <mxCell id="bIYt_jWbCwtQeflmAYfM-89" value="" style="curved=1;endArrow=classic;html=1;rounded=0;exitX=0;exitY=0.5;exitDx=0;exitDy=0;entryX=0.133;entryY=0.977;entryDx=0;entryDy=0;entryPerimeter=0;" edge="1" parent="1" source="bIYt_jWbCwtQeflmAYfM-77" target="bIYt_jWbCwtQeflmAYfM-23">
          <mxGeometry width="50" height="50" relative="1" as="geometry">
            <mxPoint x="50" y="740" as="sourcePoint" />
            <mxPoint x="65" y="665" as="targetPoint" />
            <Array as="points">
              <mxPoint x="30" y="720" />
              <mxPoint x="70" y="650" />
            </Array>
          </mxGeometry>
        </mxCell>
        <mxCell id="bIYt_jWbCwtQeflmAYfM-90" value="" style="curved=1;endArrow=classic;html=1;rounded=0;exitX=0.208;exitY=0;exitDx=0;exitDy=0;exitPerimeter=0;entryX=0;entryY=0.5;entryDx=0;entryDy=0;" edge="1" parent="1" source="bIYt_jWbCwtQeflmAYfM-77" target="bIYt_jWbCwtQeflmAYfM-59">
          <mxGeometry width="50" height="50" relative="1" as="geometry">
            <mxPoint x="200" y="715" as="sourcePoint" />
            <mxPoint x="250" y="665" as="targetPoint" />
            <Array as="points">
              <mxPoint x="235" y="710" />
              <mxPoint x="200" y="665" />
            </Array>
          </mxGeometry>
        </mxCell>
      </root>
    </mxGraphModel>
  </diagram>
  <diagram id="awOGwA8FaO80b36pk8U2" name="Page-2">
    <mxGraphModel dx="643" dy="828" grid="1" gridSize="5" guides="1" tooltips="1" connect="1" arrows="1" fold="1" page="1" pageScale="1" pageWidth="850" pageHeight="1100" math="0" shadow="0">
      <root>
        <mxCell id="0" />
        <mxCell id="1" parent="0" />
        <mxCell id="OjcG9nu_UA_ypfbEKO_U-1" value="&lt;font style=&quot;font-size: 24px;&quot;&gt;2- Hospital&lt;/font&gt;" style="text;html=1;align=center;verticalAlign=middle;resizable=0;points=[];autosize=1;strokeColor=none;fillColor=none;" vertex="1" parent="1">
          <mxGeometry x="1" y="38" width="135" height="45" as="geometry" />
        </mxCell>
        <mxCell id="OjcG9nu_UA_ypfbEKO_U-2" value="" style="shape=table;startSize=0;container=1;collapsible=0;childLayout=tableLayout;" vertex="1" parent="1">
          <mxGeometry x="79" y="205" width="340" height="35" as="geometry" />
        </mxCell>
        <mxCell id="OjcG9nu_UA_ypfbEKO_U-3" value="" style="shape=tableRow;horizontal=0;startSize=0;swimlaneHead=0;swimlaneBody=0;strokeColor=inherit;top=0;left=0;bottom=0;right=0;collapsible=0;dropTarget=0;fillColor=none;points=[[0,0.5],[1,0.5]];portConstraint=eastwest;" vertex="1" parent="OjcG9nu_UA_ypfbEKO_U-2">
          <mxGeometry width="340" height="35" as="geometry" />
        </mxCell>
        <mxCell id="PI1itYgOXPJFwpgMa_Jc-1" value="W-ID" style="shape=partialRectangle;html=1;whiteSpace=wrap;connectable=0;strokeColor=inherit;overflow=hidden;fillColor=none;top=0;left=0;bottom=0;right=0;pointerEvents=1;" vertex="1" parent="OjcG9nu_UA_ypfbEKO_U-3">
          <mxGeometry width="56" height="35" as="geometry">
            <mxRectangle width="56" height="35" as="alternateBounds" />
          </mxGeometry>
        </mxCell>
        <mxCell id="OjcG9nu_UA_ypfbEKO_U-43" value="C-ID Assigned" style="shape=partialRectangle;html=1;whiteSpace=wrap;connectable=0;strokeColor=inherit;overflow=hidden;fillColor=none;top=0;left=0;bottom=0;right=0;pointerEvents=1;" vertex="1" parent="OjcG9nu_UA_ypfbEKO_U-3">
          <mxGeometry x="56" width="97" height="35" as="geometry">
            <mxRectangle width="97" height="35" as="alternateBounds" />
          </mxGeometry>
        </mxCell>
        <mxCell id="OjcG9nu_UA_ypfbEKO_U-4" value="&lt;u&gt;P-ID&lt;/u&gt;" style="shape=partialRectangle;html=1;whiteSpace=wrap;connectable=0;strokeColor=inherit;overflow=hidden;fillColor=none;top=0;left=0;bottom=0;right=0;pointerEvents=1;" vertex="1" parent="OjcG9nu_UA_ypfbEKO_U-3">
          <mxGeometry x="153" width="51" height="35" as="geometry">
            <mxRectangle width="51" height="35" as="alternateBounds" />
          </mxGeometry>
        </mxCell>
        <mxCell id="OjcG9nu_UA_ypfbEKO_U-5" value="Name" style="shape=partialRectangle;html=1;whiteSpace=wrap;connectable=0;strokeColor=inherit;overflow=hidden;fillColor=none;top=0;left=0;bottom=0;right=0;pointerEvents=1;" vertex="1" parent="OjcG9nu_UA_ypfbEKO_U-3">
          <mxGeometry x="204" width="68" height="35" as="geometry">
            <mxRectangle width="68" height="35" as="alternateBounds" />
          </mxGeometry>
        </mxCell>
        <mxCell id="OjcG9nu_UA_ypfbEKO_U-6" value="BirthDate" style="shape=partialRectangle;html=1;whiteSpace=wrap;connectable=0;strokeColor=inherit;overflow=hidden;fillColor=none;top=0;left=0;bottom=0;right=0;pointerEvents=1;" vertex="1" parent="OjcG9nu_UA_ypfbEKO_U-3">
          <mxGeometry x="272" width="68" height="35" as="geometry">
            <mxRectangle width="68" height="35" as="alternateBounds" />
          </mxGeometry>
        </mxCell>
        <mxCell id="OjcG9nu_UA_ypfbEKO_U-7" value="&lt;font style=&quot;font-size: 14px;&quot;&gt;Patient&lt;/font&gt;" style="text;html=1;align=center;verticalAlign=middle;resizable=0;points=[];autosize=1;strokeColor=none;fillColor=none;" vertex="1" parent="1">
          <mxGeometry x="79" y="176" width="65" height="35" as="geometry" />
        </mxCell>
        <mxCell id="OjcG9nu_UA_ypfbEKO_U-10" value="" style="shape=table;startSize=0;container=1;collapsible=0;childLayout=tableLayout;" vertex="1" parent="1">
          <mxGeometry x="450" y="81" width="120" height="34" as="geometry" />
        </mxCell>
        <mxCell id="OjcG9nu_UA_ypfbEKO_U-11" value="" style="shape=tableRow;horizontal=0;startSize=0;swimlaneHead=0;swimlaneBody=0;strokeColor=inherit;top=0;left=0;bottom=0;right=0;collapsible=0;dropTarget=0;fillColor=none;points=[[0,0.5],[1,0.5]];portConstraint=eastwest;" vertex="1" parent="OjcG9nu_UA_ypfbEKO_U-10">
          <mxGeometry width="120" height="34" as="geometry" />
        </mxCell>
        <mxCell id="OjcG9nu_UA_ypfbEKO_U-12" value="&lt;u&gt;C-ID&lt;/u&gt;" style="shape=partialRectangle;html=1;whiteSpace=wrap;connectable=0;strokeColor=inherit;overflow=hidden;fillColor=none;top=0;left=0;bottom=0;right=0;pointerEvents=1;" vertex="1" parent="OjcG9nu_UA_ypfbEKO_U-11">
          <mxGeometry width="60" height="34" as="geometry">
            <mxRectangle width="60" height="34" as="alternateBounds" />
          </mxGeometry>
        </mxCell>
        <mxCell id="OjcG9nu_UA_ypfbEKO_U-13" value="C-Name" style="shape=partialRectangle;html=1;whiteSpace=wrap;connectable=0;strokeColor=inherit;overflow=hidden;fillColor=none;top=0;left=0;bottom=0;right=0;pointerEvents=1;" vertex="1" parent="OjcG9nu_UA_ypfbEKO_U-11">
          <mxGeometry x="60" width="60" height="34" as="geometry">
            <mxRectangle width="60" height="34" as="alternateBounds" />
          </mxGeometry>
        </mxCell>
        <mxCell id="OjcG9nu_UA_ypfbEKO_U-14" value="&lt;font style=&quot;font-size: 14px;&quot;&gt;Consultant&lt;/font&gt;" style="text;html=1;align=center;verticalAlign=middle;resizable=0;points=[];autosize=1;strokeColor=none;fillColor=none;" vertex="1" parent="1">
          <mxGeometry x="440" y="50" width="90" height="35" as="geometry" />
        </mxCell>
        <mxCell id="OjcG9nu_UA_ypfbEKO_U-15" value="" style="shape=table;startSize=0;container=1;collapsible=0;childLayout=tableLayout;" vertex="1" parent="1">
          <mxGeometry x="24" y="459" width="180" height="35" as="geometry" />
        </mxCell>
        <mxCell id="OjcG9nu_UA_ypfbEKO_U-16" value="" style="shape=tableRow;horizontal=0;startSize=0;swimlaneHead=0;swimlaneBody=0;strokeColor=inherit;top=0;left=0;bottom=0;right=0;collapsible=0;dropTarget=0;fillColor=none;points=[[0,0.5],[1,0.5]];portConstraint=eastwest;" vertex="1" parent="OjcG9nu_UA_ypfbEKO_U-15">
          <mxGeometry width="180" height="35" as="geometry" />
        </mxCell>
        <mxCell id="OjcG9nu_UA_ypfbEKO_U-40" value="SuperNum" style="shape=partialRectangle;html=1;whiteSpace=wrap;connectable=0;strokeColor=inherit;overflow=hidden;fillColor=none;top=0;left=0;bottom=0;right=0;pointerEvents=1;" vertex="1" parent="OjcG9nu_UA_ypfbEKO_U-16">
          <mxGeometry width="60" height="35" as="geometry">
            <mxRectangle width="60" height="35" as="alternateBounds" />
          </mxGeometry>
        </mxCell>
        <mxCell id="OjcG9nu_UA_ypfbEKO_U-17" value="&lt;u&gt;W-ID&lt;/u&gt;" style="shape=partialRectangle;html=1;whiteSpace=wrap;connectable=0;strokeColor=inherit;overflow=hidden;fillColor=none;top=0;left=0;bottom=0;right=0;pointerEvents=1;" vertex="1" parent="OjcG9nu_UA_ypfbEKO_U-16">
          <mxGeometry x="60" width="60" height="35" as="geometry">
            <mxRectangle width="60" height="35" as="alternateBounds" />
          </mxGeometry>
        </mxCell>
        <mxCell id="OjcG9nu_UA_ypfbEKO_U-18" value="W-Name" style="shape=partialRectangle;html=1;whiteSpace=wrap;connectable=0;strokeColor=inherit;overflow=hidden;fillColor=none;top=0;left=0;bottom=0;right=0;pointerEvents=1;" vertex="1" parent="OjcG9nu_UA_ypfbEKO_U-16">
          <mxGeometry x="120" width="60" height="35" as="geometry">
            <mxRectangle width="60" height="35" as="alternateBounds" />
          </mxGeometry>
        </mxCell>
        <mxCell id="OjcG9nu_UA_ypfbEKO_U-19" value="&lt;font style=&quot;font-size: 14px;&quot;&gt;Ward&lt;/font&gt;" style="text;html=1;align=center;verticalAlign=middle;resizable=0;points=[];autosize=1;strokeColor=none;fillColor=none;" vertex="1" parent="1">
          <mxGeometry x="15" y="430" width="55" height="35" as="geometry" />
        </mxCell>
        <mxCell id="OjcG9nu_UA_ypfbEKO_U-20" value="" style="shape=table;startSize=0;container=1;collapsible=0;childLayout=tableLayout;" vertex="1" parent="1">
          <mxGeometry x="39" y="592" width="240" height="35" as="geometry" />
        </mxCell>
        <mxCell id="OjcG9nu_UA_ypfbEKO_U-21" value="" style="shape=tableRow;horizontal=0;startSize=0;swimlaneHead=0;swimlaneBody=0;strokeColor=inherit;top=0;left=0;bottom=0;right=0;collapsible=0;dropTarget=0;fillColor=none;points=[[0,0.5],[1,0.5]];portConstraint=eastwest;" vertex="1" parent="OjcG9nu_UA_ypfbEKO_U-20">
          <mxGeometry width="240" height="35" as="geometry" />
        </mxCell>
        <mxCell id="PI1itYgOXPJFwpgMa_Jc-4" value="W-ID" style="shape=partialRectangle;html=1;whiteSpace=wrap;connectable=0;strokeColor=inherit;overflow=hidden;fillColor=none;top=0;left=0;bottom=0;right=0;pointerEvents=1;" vertex="1" parent="OjcG9nu_UA_ypfbEKO_U-21">
          <mxGeometry width="60" height="35" as="geometry">
            <mxRectangle width="60" height="35" as="alternateBounds" />
          </mxGeometry>
        </mxCell>
        <mxCell id="OjcG9nu_UA_ypfbEKO_U-22" value="&lt;u&gt;Number&lt;/u&gt;" style="shape=partialRectangle;html=1;whiteSpace=wrap;connectable=0;strokeColor=inherit;overflow=hidden;fillColor=none;top=0;left=0;bottom=0;right=0;pointerEvents=1;" vertex="1" parent="OjcG9nu_UA_ypfbEKO_U-21">
          <mxGeometry x="60" width="60" height="35" as="geometry">
            <mxRectangle width="60" height="35" as="alternateBounds" />
          </mxGeometry>
        </mxCell>
        <mxCell id="OjcG9nu_UA_ypfbEKO_U-23" value="Name" style="shape=partialRectangle;html=1;whiteSpace=wrap;connectable=0;strokeColor=inherit;overflow=hidden;fillColor=none;top=0;left=0;bottom=0;right=0;pointerEvents=1;" vertex="1" parent="OjcG9nu_UA_ypfbEKO_U-21">
          <mxGeometry x="120" width="60" height="35" as="geometry">
            <mxRectangle width="60" height="35" as="alternateBounds" />
          </mxGeometry>
        </mxCell>
        <mxCell id="OjcG9nu_UA_ypfbEKO_U-24" value="Address" style="shape=partialRectangle;html=1;whiteSpace=wrap;connectable=0;strokeColor=inherit;overflow=hidden;fillColor=none;top=0;left=0;bottom=0;right=0;pointerEvents=1;" vertex="1" parent="OjcG9nu_UA_ypfbEKO_U-21">
          <mxGeometry x="180" width="60" height="35" as="geometry">
            <mxRectangle width="60" height="35" as="alternateBounds" />
          </mxGeometry>
        </mxCell>
        <mxCell id="OjcG9nu_UA_ypfbEKO_U-25" value="&lt;font style=&quot;font-size: 14px;&quot;&gt;Nurse&lt;/font&gt;" style="text;html=1;align=center;verticalAlign=middle;resizable=0;points=[];autosize=1;strokeColor=none;fillColor=none;" vertex="1" parent="1">
          <mxGeometry x="35" y="562" width="60" height="35" as="geometry" />
        </mxCell>
        <mxCell id="OjcG9nu_UA_ypfbEKO_U-26" value="" style="shape=table;startSize=0;container=1;collapsible=0;childLayout=tableLayout;" vertex="1" parent="1">
          <mxGeometry x="510" y="325" width="120" height="35" as="geometry" />
        </mxCell>
        <mxCell id="OjcG9nu_UA_ypfbEKO_U-27" value="" style="shape=tableRow;horizontal=0;startSize=0;swimlaneHead=0;swimlaneBody=0;strokeColor=inherit;top=0;left=0;bottom=0;right=0;collapsible=0;dropTarget=0;fillColor=none;points=[[0,0.5],[1,0.5]];portConstraint=eastwest;" vertex="1" parent="OjcG9nu_UA_ypfbEKO_U-26">
          <mxGeometry width="120" height="35" as="geometry" />
        </mxCell>
        <mxCell id="OjcG9nu_UA_ypfbEKO_U-28" value="&lt;u&gt;Code&lt;/u&gt;" style="shape=partialRectangle;html=1;whiteSpace=wrap;connectable=0;strokeColor=inherit;overflow=hidden;fillColor=none;top=0;left=0;bottom=0;right=0;pointerEvents=1;" vertex="1" parent="OjcG9nu_UA_ypfbEKO_U-27">
          <mxGeometry width="60" height="35" as="geometry">
            <mxRectangle width="60" height="35" as="alternateBounds" />
          </mxGeometry>
        </mxCell>
        <mxCell id="OjcG9nu_UA_ypfbEKO_U-29" value="Dosage" style="shape=partialRectangle;html=1;whiteSpace=wrap;connectable=0;strokeColor=inherit;overflow=hidden;fillColor=none;top=0;left=0;bottom=0;right=0;pointerEvents=1;" vertex="1" parent="OjcG9nu_UA_ypfbEKO_U-27">
          <mxGeometry x="60" width="60" height="35" as="geometry">
            <mxRectangle width="60" height="35" as="alternateBounds" />
          </mxGeometry>
        </mxCell>
        <mxCell id="OjcG9nu_UA_ypfbEKO_U-30" value="&lt;font style=&quot;font-size: 14px;&quot;&gt;Drug&lt;/font&gt;" style="text;html=1;align=center;verticalAlign=middle;resizable=0;points=[];autosize=1;strokeColor=none;fillColor=none;" vertex="1" parent="1">
          <mxGeometry x="506" y="295" width="50" height="35" as="geometry" />
        </mxCell>
        <mxCell id="OjcG9nu_UA_ypfbEKO_U-31" value="" style="shape=table;startSize=0;container=1;collapsible=0;childLayout=tableLayout;" vertex="1" parent="1">
          <mxGeometry x="655" y="390" width="120" height="35" as="geometry" />
        </mxCell>
        <mxCell id="OjcG9nu_UA_ypfbEKO_U-32" value="" style="shape=tableRow;horizontal=0;startSize=0;swimlaneHead=0;swimlaneBody=0;strokeColor=inherit;top=0;left=0;bottom=0;right=0;collapsible=0;dropTarget=0;fillColor=none;points=[[0,0.5],[1,0.5]];portConstraint=eastwest;" vertex="1" parent="OjcG9nu_UA_ypfbEKO_U-31">
          <mxGeometry width="120" height="35" as="geometry" />
        </mxCell>
        <mxCell id="OjcG9nu_UA_ypfbEKO_U-33" value="D-Code" style="shape=partialRectangle;html=1;whiteSpace=wrap;connectable=0;strokeColor=inherit;overflow=hidden;fillColor=none;top=0;left=0;bottom=0;right=0;pointerEvents=1;" vertex="1" parent="OjcG9nu_UA_ypfbEKO_U-32">
          <mxGeometry width="60" height="35" as="geometry">
            <mxRectangle width="60" height="35" as="alternateBounds" />
          </mxGeometry>
        </mxCell>
        <mxCell id="OjcG9nu_UA_ypfbEKO_U-34" value="Brand" style="shape=partialRectangle;html=1;whiteSpace=wrap;connectable=0;strokeColor=inherit;overflow=hidden;fillColor=none;top=0;left=0;bottom=0;right=0;pointerEvents=1;" vertex="1" parent="OjcG9nu_UA_ypfbEKO_U-32">
          <mxGeometry x="60" width="60" height="35" as="geometry">
            <mxRectangle width="60" height="35" as="alternateBounds" />
          </mxGeometry>
        </mxCell>
        <mxCell id="OjcG9nu_UA_ypfbEKO_U-35" value="&lt;font style=&quot;font-size: 14px;&quot;&gt;Drug-Brand&lt;/font&gt;" style="text;html=1;align=center;verticalAlign=middle;resizable=0;points=[];autosize=1;strokeColor=none;fillColor=none;" vertex="1" parent="1">
          <mxGeometry x="645" y="360" width="95" height="35" as="geometry" />
        </mxCell>
        <mxCell id="OjcG9nu_UA_ypfbEKO_U-37" value="" style="endArrow=none;dashed=1;html=1;rounded=0;strokeColor=#FF0000;" edge="1" parent="1">
          <mxGeometry width="50" height="50" relative="1" as="geometry">
            <mxPoint x="670" y="420" as="sourcePoint" />
            <mxPoint x="755" y="420" as="targetPoint" />
          </mxGeometry>
        </mxCell>
        <mxCell id="OjcG9nu_UA_ypfbEKO_U-38" value="" style="endArrow=none;html=1;rounded=0;entryX=0.882;entryY=1.126;entryDx=0;entryDy=0;entryPerimeter=0;" edge="1" parent="1" target="OjcG9nu_UA_ypfbEKO_U-32">
          <mxGeometry width="50" height="50" relative="1" as="geometry">
            <mxPoint x="665" y="430" as="sourcePoint" />
            <mxPoint x="745" y="430" as="targetPoint" />
          </mxGeometry>
        </mxCell>
        <mxCell id="OjcG9nu_UA_ypfbEKO_U-39" value="" style="curved=1;endArrow=classic;html=1;rounded=0;exitX=0;exitY=0.5;exitDx=0;exitDy=0;entryX=0.23;entryY=1.017;entryDx=0;entryDy=0;entryPerimeter=0;" edge="1" parent="1" source="OjcG9nu_UA_ypfbEKO_U-32" target="OjcG9nu_UA_ypfbEKO_U-27">
          <mxGeometry width="50" height="50" relative="1" as="geometry">
            <mxPoint x="540" y="380" as="sourcePoint" />
            <mxPoint x="525" y="365" as="targetPoint" />
            <Array as="points">
              <mxPoint x="590" y="380" />
              <mxPoint x="580" y="405" />
            </Array>
          </mxGeometry>
        </mxCell>
        <mxCell id="OjcG9nu_UA_ypfbEKO_U-41" value="" style="endArrow=none;dashed=1;html=1;rounded=0;strokeColor=#FF3333;" edge="1" parent="1">
          <mxGeometry width="50" height="50" relative="1" as="geometry">
            <mxPoint x="35" y="489" as="sourcePoint" />
            <mxPoint x="75" y="489" as="targetPoint" />
          </mxGeometry>
        </mxCell>
        <mxCell id="OjcG9nu_UA_ypfbEKO_U-42" value="" style="curved=1;endArrow=classic;html=1;rounded=0;exitX=0.179;exitY=0.943;exitDx=0;exitDy=0;exitPerimeter=0;" edge="1" parent="1" source="OjcG9nu_UA_ypfbEKO_U-16" target="OjcG9nu_UA_ypfbEKO_U-21">
          <mxGeometry width="50" height="50" relative="1" as="geometry">
            <mxPoint x="50" y="497" as="sourcePoint" />
            <mxPoint x="310" y="524" as="targetPoint" />
            <Array as="points">
              <mxPoint x="25" y="519" />
            </Array>
          </mxGeometry>
        </mxCell>
        <mxCell id="OjcG9nu_UA_ypfbEKO_U-44" value="" style="endArrow=none;dashed=1;html=1;rounded=0;strokeColor=#FF3333;" edge="1" parent="1">
          <mxGeometry width="50" height="50" relative="1" as="geometry">
            <mxPoint x="150" y="235" as="sourcePoint" />
            <mxPoint x="210" y="235" as="targetPoint" />
          </mxGeometry>
        </mxCell>
        <mxCell id="PI1itYgOXPJFwpgMa_Jc-2" value="" style="endArrow=none;dashed=1;html=1;rounded=0;strokeColor=#FF3333;" edge="1" parent="1">
          <mxGeometry width="50" height="50" relative="1" as="geometry">
            <mxPoint x="91.5" y="235" as="sourcePoint" />
            <mxPoint x="131.5" y="235" as="targetPoint" />
          </mxGeometry>
        </mxCell>
        <mxCell id="PI1itYgOXPJFwpgMa_Jc-3" value="" style="curved=1;endArrow=classic;html=1;rounded=0;entryX=0.49;entryY=-0.063;entryDx=0;entryDy=0;entryPerimeter=0;exitX=0.021;exitY=0.994;exitDx=0;exitDy=0;exitPerimeter=0;" edge="1" parent="1" source="OjcG9nu_UA_ypfbEKO_U-3" target="OjcG9nu_UA_ypfbEKO_U-16">
          <mxGeometry width="50" height="50" relative="1" as="geometry">
            <mxPoint x="40" y="475" as="sourcePoint" />
            <mxPoint x="95" y="382.5" as="targetPoint" />
            <Array as="points">
              <mxPoint x="25" y="350" />
              <mxPoint x="80" y="340" />
            </Array>
          </mxGeometry>
        </mxCell>
        <mxCell id="PI1itYgOXPJFwpgMa_Jc-7" value="" style="endArrow=none;dashed=1;html=1;rounded=0;strokeColor=#FF3333;" edge="1" parent="1">
          <mxGeometry width="50" height="50" relative="1" as="geometry">
            <mxPoint x="50" y="621" as="sourcePoint" />
            <mxPoint x="90" y="621" as="targetPoint" />
          </mxGeometry>
        </mxCell>
        <mxCell id="PI1itYgOXPJFwpgMa_Jc-8" value="" style="curved=1;endArrow=classic;html=1;rounded=0;exitX=0.85;exitY=0.971;exitDx=0;exitDy=0;entryX=0.478;entryY=1;entryDx=0;entryDy=0;entryPerimeter=0;exitPerimeter=0;" edge="1" parent="1" source="OjcG9nu_UA_ypfbEKO_U-25" target="OjcG9nu_UA_ypfbEKO_U-16">
          <mxGeometry width="50" height="50" relative="1" as="geometry">
            <mxPoint x="50" y="615" as="sourcePoint" />
            <mxPoint x="100" y="565" as="targetPoint" />
            <Array as="points">
              <mxPoint x="130" y="530" />
            </Array>
          </mxGeometry>
        </mxCell>
        <mxCell id="PI1itYgOXPJFwpgMa_Jc-9" value="" style="shape=table;startSize=0;container=1;collapsible=0;childLayout=tableLayout;" vertex="1" parent="1">
          <mxGeometry x="193" y="102" width="120" height="35" as="geometry" />
        </mxCell>
        <mxCell id="PI1itYgOXPJFwpgMa_Jc-10" value="" style="shape=tableRow;horizontal=0;startSize=0;swimlaneHead=0;swimlaneBody=0;strokeColor=inherit;top=0;left=0;bottom=0;right=0;collapsible=0;dropTarget=0;fillColor=none;points=[[0,0.5],[1,0.5]];portConstraint=eastwest;" vertex="1" parent="PI1itYgOXPJFwpgMa_Jc-9">
          <mxGeometry width="120" height="35" as="geometry" />
        </mxCell>
        <mxCell id="PI1itYgOXPJFwpgMa_Jc-11" value="P-ID" style="shape=partialRectangle;html=1;whiteSpace=wrap;connectable=0;strokeColor=inherit;overflow=hidden;fillColor=none;top=0;left=0;bottom=0;right=0;pointerEvents=1;" vertex="1" parent="PI1itYgOXPJFwpgMa_Jc-10">
          <mxGeometry width="60" height="35" as="geometry">
            <mxRectangle width="60" height="35" as="alternateBounds" />
          </mxGeometry>
        </mxCell>
        <mxCell id="PI1itYgOXPJFwpgMa_Jc-12" value="C-ID" style="shape=partialRectangle;html=1;whiteSpace=wrap;connectable=0;strokeColor=inherit;overflow=hidden;fillColor=none;top=0;left=0;bottom=0;right=0;pointerEvents=1;" vertex="1" parent="PI1itYgOXPJFwpgMa_Jc-10">
          <mxGeometry x="60" width="60" height="35" as="geometry">
            <mxRectangle width="60" height="35" as="alternateBounds" />
          </mxGeometry>
        </mxCell>
        <mxCell id="PI1itYgOXPJFwpgMa_Jc-13" value="&lt;font style=&quot;font-size: 14px;&quot;&gt;P-Con Examination&lt;/font&gt;" style="text;html=1;align=center;verticalAlign=middle;resizable=0;points=[];autosize=1;strokeColor=none;fillColor=none;" vertex="1" parent="1">
          <mxGeometry x="178" y="70" width="140" height="35" as="geometry" />
        </mxCell>
        <mxCell id="PI1itYgOXPJFwpgMa_Jc-14" value="" style="endArrow=none;dashed=1;html=1;rounded=0;strokeColor=#FF3333;" edge="1" parent="1">
          <mxGeometry width="50" height="50" relative="1" as="geometry">
            <mxPoint x="210.5" y="130" as="sourcePoint" />
            <mxPoint x="295.5" y="130" as="targetPoint" />
          </mxGeometry>
        </mxCell>
        <mxCell id="PI1itYgOXPJFwpgMa_Jc-15" value="" style="endArrow=none;html=1;rounded=0;entryX=0.882;entryY=1.126;entryDx=0;entryDy=0;entryPerimeter=0;" edge="1" parent="1">
          <mxGeometry width="50" height="50" relative="1" as="geometry">
            <mxPoint x="200" y="141" as="sourcePoint" />
            <mxPoint x="296" y="140" as="targetPoint" />
          </mxGeometry>
        </mxCell>
        <mxCell id="PI1itYgOXPJFwpgMa_Jc-16" value="" style="curved=1;endArrow=classic;html=1;rounded=0;exitX=0.245;exitY=0.989;exitDx=0;exitDy=0;exitPerimeter=0;entryX=0.532;entryY=-0.057;entryDx=0;entryDy=0;entryPerimeter=0;" edge="1" parent="1" source="PI1itYgOXPJFwpgMa_Jc-10" target="OjcG9nu_UA_ypfbEKO_U-3">
          <mxGeometry width="50" height="50" relative="1" as="geometry">
            <mxPoint x="245" y="170" as="sourcePoint" />
            <mxPoint x="315" y="90" as="targetPoint" />
            <Array as="points">
              <mxPoint x="205" y="155" />
              <mxPoint x="195" y="175" />
              <mxPoint x="205" y="180" />
            </Array>
          </mxGeometry>
        </mxCell>
        <mxCell id="PI1itYgOXPJFwpgMa_Jc-17" value="" style="curved=1;endArrow=classic;html=1;rounded=0;entryX=0.012;entryY=0.282;entryDx=0;entryDy=0;entryPerimeter=0;exitX=0.918;exitY=0.943;exitDx=0;exitDy=0;exitPerimeter=0;" edge="1" parent="1" source="PI1itYgOXPJFwpgMa_Jc-10" target="OjcG9nu_UA_ypfbEKO_U-11">
          <mxGeometry width="50" height="50" relative="1" as="geometry">
            <mxPoint x="460" y="155" as="sourcePoint" />
            <mxPoint x="435" y="226" as="targetPoint" />
            <Array as="points">
              <mxPoint x="350" y="115" />
              <mxPoint x="365" y="100" />
              <mxPoint x="405" y="85" />
            </Array>
          </mxGeometry>
        </mxCell>
        <mxCell id="PI1itYgOXPJFwpgMa_Jc-18" value="" style="shape=table;startSize=0;container=1;collapsible=0;childLayout=tableLayout;" vertex="1" parent="1">
          <mxGeometry x="140" y="385" width="360" height="35" as="geometry" />
        </mxCell>
        <mxCell id="PI1itYgOXPJFwpgMa_Jc-19" value="" style="shape=tableRow;horizontal=0;startSize=0;swimlaneHead=0;swimlaneBody=0;strokeColor=inherit;top=0;left=0;bottom=0;right=0;collapsible=0;dropTarget=0;fillColor=none;points=[[0,0.5],[1,0.5]];portConstraint=eastwest;" vertex="1" parent="PI1itYgOXPJFwpgMa_Jc-18">
          <mxGeometry width="360" height="35" as="geometry" />
        </mxCell>
        <mxCell id="PI1itYgOXPJFwpgMa_Jc-20" value="N-Num" style="shape=partialRectangle;html=1;whiteSpace=wrap;connectable=0;strokeColor=inherit;overflow=hidden;fillColor=none;top=0;left=0;bottom=0;right=0;pointerEvents=1;" vertex="1" parent="PI1itYgOXPJFwpgMa_Jc-19">
          <mxGeometry width="60" height="35" as="geometry">
            <mxRectangle width="60" height="35" as="alternateBounds" />
          </mxGeometry>
        </mxCell>
        <mxCell id="PI1itYgOXPJFwpgMa_Jc-21" value="P-ID" style="shape=partialRectangle;html=1;whiteSpace=wrap;connectable=0;strokeColor=inherit;overflow=hidden;fillColor=none;top=0;left=0;bottom=0;right=0;pointerEvents=1;" vertex="1" parent="PI1itYgOXPJFwpgMa_Jc-19">
          <mxGeometry x="60" width="60" height="35" as="geometry">
            <mxRectangle width="60" height="35" as="alternateBounds" />
          </mxGeometry>
        </mxCell>
        <mxCell id="PI1itYgOXPJFwpgMa_Jc-22" value="D-Code" style="shape=partialRectangle;html=1;whiteSpace=wrap;connectable=0;strokeColor=inherit;overflow=hidden;fillColor=none;top=0;left=0;bottom=0;right=0;pointerEvents=1;" vertex="1" parent="PI1itYgOXPJFwpgMa_Jc-19">
          <mxGeometry x="120" width="60" height="35" as="geometry">
            <mxRectangle width="60" height="35" as="alternateBounds" />
          </mxGeometry>
        </mxCell>
        <mxCell id="PI1itYgOXPJFwpgMa_Jc-23" value="Dosage" style="shape=partialRectangle;html=1;whiteSpace=wrap;connectable=0;strokeColor=inherit;overflow=hidden;fillColor=none;top=0;left=0;bottom=0;right=0;pointerEvents=1;" vertex="1" parent="PI1itYgOXPJFwpgMa_Jc-19">
          <mxGeometry x="180" width="60" height="35" as="geometry">
            <mxRectangle width="60" height="35" as="alternateBounds" />
          </mxGeometry>
        </mxCell>
        <mxCell id="PI1itYgOXPJFwpgMa_Jc-24" value="Date" style="shape=partialRectangle;html=1;whiteSpace=wrap;connectable=0;strokeColor=inherit;overflow=hidden;fillColor=none;top=0;left=0;bottom=0;right=0;pointerEvents=1;" vertex="1" parent="PI1itYgOXPJFwpgMa_Jc-19">
          <mxGeometry x="240" width="60" height="35" as="geometry">
            <mxRectangle width="60" height="35" as="alternateBounds" />
          </mxGeometry>
        </mxCell>
        <mxCell id="PI1itYgOXPJFwpgMa_Jc-25" value="Time" style="shape=partialRectangle;html=1;whiteSpace=wrap;connectable=0;strokeColor=inherit;overflow=hidden;fillColor=none;top=0;left=0;bottom=0;right=0;pointerEvents=1;" vertex="1" parent="PI1itYgOXPJFwpgMa_Jc-19">
          <mxGeometry x="300" width="60" height="35" as="geometry">
            <mxRectangle width="60" height="35" as="alternateBounds" />
          </mxGeometry>
        </mxCell>
        <mxCell id="PI1itYgOXPJFwpgMa_Jc-28" value="&lt;font style=&quot;font-size: 14px;&quot;&gt;Treatment Records&lt;/font&gt;" style="text;html=1;align=center;verticalAlign=middle;resizable=0;points=[];autosize=1;strokeColor=none;fillColor=none;" vertex="1" parent="1">
          <mxGeometry x="129" y="353" width="140" height="35" as="geometry" />
        </mxCell>
        <mxCell id="PI1itYgOXPJFwpgMa_Jc-30" value="" style="endArrow=none;dashed=1;html=1;rounded=0;strokeColor=#FF3333;" edge="1" parent="1">
          <mxGeometry width="50" height="50" relative="1" as="geometry">
            <mxPoint x="150" y="415" as="sourcePoint" />
            <mxPoint x="190" y="415" as="targetPoint" />
          </mxGeometry>
        </mxCell>
        <mxCell id="PI1itYgOXPJFwpgMa_Jc-31" value="" style="curved=1;endArrow=classic;html=1;rounded=0;exitX=0.112;exitY=1.023;exitDx=0;exitDy=0;exitPerimeter=0;entryX=0.419;entryY=0.023;entryDx=0;entryDy=0;entryPerimeter=0;" edge="1" parent="1" source="PI1itYgOXPJFwpgMa_Jc-19" target="OjcG9nu_UA_ypfbEKO_U-21">
          <mxGeometry width="50" height="50" relative="1" as="geometry">
            <mxPoint x="255" y="515" as="sourcePoint" />
            <mxPoint x="305" y="465" as="targetPoint" />
            <Array as="points">
              <mxPoint x="270" y="480" />
              <mxPoint x="190" y="530" />
            </Array>
          </mxGeometry>
        </mxCell>
        <mxCell id="PI1itYgOXPJFwpgMa_Jc-32" value="" style="endArrow=none;dashed=1;html=1;rounded=0;strokeColor=#FF3333;" edge="1" parent="1">
          <mxGeometry width="50" height="50" relative="1" as="geometry">
            <mxPoint x="210" y="415" as="sourcePoint" />
            <mxPoint x="250" y="415" as="targetPoint" />
          </mxGeometry>
        </mxCell>
        <mxCell id="PI1itYgOXPJFwpgMa_Jc-33" value="" style="curved=1;endArrow=classic;html=1;rounded=0;exitX=0.819;exitY=1.046;exitDx=0;exitDy=0;exitPerimeter=0;entryX=0.526;entryY=1.069;entryDx=0;entryDy=0;entryPerimeter=0;" edge="1" parent="1" source="PI1itYgOXPJFwpgMa_Jc-28" target="OjcG9nu_UA_ypfbEKO_U-3">
          <mxGeometry width="50" height="50" relative="1" as="geometry">
            <mxPoint x="224" y="345" as="sourcePoint" />
            <mxPoint x="274" y="295" as="targetPoint" />
            <Array as="points">
              <mxPoint x="274" y="345" />
              <mxPoint x="224" y="295" />
            </Array>
          </mxGeometry>
        </mxCell>
        <mxCell id="PI1itYgOXPJFwpgMa_Jc-34" value="" style="curved=1;endArrow=classic;html=1;rounded=0;entryX=0;entryY=0.5;entryDx=0;entryDy=0;exitX=0.305;exitY=-0.051;exitDx=0;exitDy=0;exitPerimeter=0;" edge="1" parent="1" source="OjcG9nu_UA_ypfbEKO_U-3" target="OjcG9nu_UA_ypfbEKO_U-11">
          <mxGeometry width="50" height="50" relative="1" as="geometry">
            <mxPoint x="180" y="195" as="sourcePoint" />
            <mxPoint x="360" y="137" as="targetPoint" />
            <Array as="points">
              <mxPoint x="345" y="170" />
              <mxPoint x="310" y="137" />
            </Array>
          </mxGeometry>
        </mxCell>
        <mxCell id="PI1itYgOXPJFwpgMa_Jc-35" value="" style="endArrow=none;dashed=1;html=1;rounded=0;strokeColor=#FF3333;" edge="1" parent="1">
          <mxGeometry width="50" height="50" relative="1" as="geometry">
            <mxPoint x="269" y="415" as="sourcePoint" />
            <mxPoint x="309" y="415" as="targetPoint" />
          </mxGeometry>
        </mxCell>
        <mxCell id="PI1itYgOXPJFwpgMa_Jc-36" value="" style="curved=1;endArrow=classic;html=1;rounded=0;entryX=0;entryY=0.5;entryDx=0;entryDy=0;exitX=0.399;exitY=0.04;exitDx=0;exitDy=0;exitPerimeter=0;" edge="1" parent="1" source="PI1itYgOXPJFwpgMa_Jc-19" target="OjcG9nu_UA_ypfbEKO_U-27">
          <mxGeometry width="50" height="50" relative="1" as="geometry">
            <mxPoint x="284" y="383" as="sourcePoint" />
            <mxPoint x="345" y="320" as="targetPoint" />
            <Array as="points">
              <mxPoint x="345" y="370" />
              <mxPoint x="330" y="315" />
            </Array>
          </mxGeometry>
        </mxCell>
        <mxCell id="PI1itYgOXPJFwpgMa_Jc-37" value="" style="endArrow=none;html=1;rounded=0;" edge="1" parent="1">
          <mxGeometry width="50" height="50" relative="1" as="geometry">
            <mxPoint x="395" y="425" as="sourcePoint" />
            <mxPoint x="485" y="425" as="targetPoint" />
          </mxGeometry>
        </mxCell>
        <mxCell id="PI1itYgOXPJFwpgMa_Jc-38" value="" style="endArrow=none;html=1;rounded=0;" edge="1" parent="1">
          <mxGeometry width="50" height="50" relative="1" as="geometry">
            <mxPoint x="205" y="425" as="sourcePoint" />
            <mxPoint x="255" y="425" as="targetPoint" />
          </mxGeometry>
        </mxCell>
      </root>
    </mxGraphModel>
  </diagram>
  <diagram id="bHrp5KdiwHSQgd6pT4ZQ" name="Page-3">
    <mxGraphModel dx="482" dy="621" grid="1" gridSize="5" guides="1" tooltips="1" connect="1" arrows="1" fold="1" page="1" pageScale="1" pageWidth="850" pageHeight="1100" math="0" shadow="0">
      <root>
        <mxCell id="0" />
        <mxCell id="1" parent="0" />
        <mxCell id="SZioMdZhFIN2Dift5Sie-1" value="&lt;font style=&quot;font-size: 24px;&quot;&gt;3-&amp;nbsp; Musician&lt;/font&gt;" style="text;html=1;align=center;verticalAlign=middle;resizable=0;points=[];autosize=1;strokeColor=none;fillColor=none;" vertex="1" parent="1">
          <mxGeometry x="25" y="35" width="150" height="45" as="geometry" />
        </mxCell>
        <mxCell id="SZioMdZhFIN2Dift5Sie-2" value="" style="shape=table;startSize=0;container=1;collapsible=0;childLayout=tableLayout;" vertex="1" parent="1">
          <mxGeometry x="40" y="150" width="300" height="35" as="geometry" />
        </mxCell>
        <mxCell id="SZioMdZhFIN2Dift5Sie-3" value="" style="shape=tableRow;horizontal=0;startSize=0;swimlaneHead=0;swimlaneBody=0;strokeColor=inherit;top=0;left=0;bottom=0;right=0;collapsible=0;dropTarget=0;fillColor=none;points=[[0,0.5],[1,0.5]];portConstraint=eastwest;" vertex="1" parent="SZioMdZhFIN2Dift5Sie-2">
          <mxGeometry width="300" height="35" as="geometry" />
        </mxCell>
        <mxCell id="SZioMdZhFIN2Dift5Sie-4" value="&lt;u&gt;M-ID&lt;/u&gt;" style="shape=partialRectangle;html=1;whiteSpace=wrap;connectable=0;strokeColor=inherit;overflow=hidden;fillColor=none;top=0;left=0;bottom=0;right=0;pointerEvents=1;" vertex="1" parent="SZioMdZhFIN2Dift5Sie-3">
          <mxGeometry width="55" height="35" as="geometry">
            <mxRectangle width="55" height="35" as="alternateBounds" />
          </mxGeometry>
        </mxCell>
        <mxCell id="SZioMdZhFIN2Dift5Sie-5" value="Name" style="shape=partialRectangle;html=1;whiteSpace=wrap;connectable=0;strokeColor=inherit;overflow=hidden;fillColor=none;top=0;left=0;bottom=0;right=0;pointerEvents=1;" vertex="1" parent="SZioMdZhFIN2Dift5Sie-3">
          <mxGeometry x="55" width="55" height="35" as="geometry">
            <mxRectangle width="55" height="35" as="alternateBounds" />
          </mxGeometry>
        </mxCell>
        <mxCell id="SZioMdZhFIN2Dift5Sie-6" value="Ph-Number" style="shape=partialRectangle;html=1;whiteSpace=wrap;connectable=0;strokeColor=inherit;overflow=hidden;fillColor=none;top=0;left=0;bottom=0;right=0;pointerEvents=1;" vertex="1" parent="SZioMdZhFIN2Dift5Sie-3">
          <mxGeometry x="110" width="75" height="35" as="geometry">
            <mxRectangle width="75" height="35" as="alternateBounds" />
          </mxGeometry>
        </mxCell>
        <mxCell id="SZioMdZhFIN2Dift5Sie-7" value="City" style="shape=partialRectangle;html=1;whiteSpace=wrap;connectable=0;strokeColor=inherit;overflow=hidden;fillColor=none;top=0;left=0;bottom=0;right=0;pointerEvents=1;" vertex="1" parent="SZioMdZhFIN2Dift5Sie-3">
          <mxGeometry x="185" width="55" height="35" as="geometry">
            <mxRectangle width="55" height="35" as="alternateBounds" />
          </mxGeometry>
        </mxCell>
        <mxCell id="SZioMdZhFIN2Dift5Sie-8" value="Street" style="shape=partialRectangle;html=1;whiteSpace=wrap;connectable=0;strokeColor=inherit;overflow=hidden;fillColor=none;top=0;left=0;bottom=0;right=0;pointerEvents=1;" vertex="1" parent="SZioMdZhFIN2Dift5Sie-3">
          <mxGeometry x="240" width="60" height="35" as="geometry">
            <mxRectangle width="60" height="35" as="alternateBounds" />
          </mxGeometry>
        </mxCell>
        <mxCell id="SZioMdZhFIN2Dift5Sie-9" value="&lt;font style=&quot;font-size: 14px;&quot;&gt;Musician&lt;/font&gt;" style="text;html=1;align=center;verticalAlign=middle;resizable=0;points=[];autosize=1;strokeColor=none;fillColor=none;" vertex="1" parent="1">
          <mxGeometry x="34" y="116" width="75" height="35" as="geometry" />
        </mxCell>
        <mxCell id="SZioMdZhFIN2Dift5Sie-10" value="" style="shape=table;startSize=0;container=1;collapsible=0;childLayout=tableLayout;" vertex="1" parent="1">
          <mxGeometry x="580" y="150" width="240" height="35" as="geometry" />
        </mxCell>
        <mxCell id="SZioMdZhFIN2Dift5Sie-11" value="" style="shape=tableRow;horizontal=0;startSize=0;swimlaneHead=0;swimlaneBody=0;strokeColor=inherit;top=0;left=0;bottom=0;right=0;collapsible=0;dropTarget=0;fillColor=none;points=[[0,0.5],[1,0.5]];portConstraint=eastwest;" vertex="1" parent="SZioMdZhFIN2Dift5Sie-10">
          <mxGeometry width="240" height="35" as="geometry" />
        </mxCell>
        <mxCell id="SZioMdZhFIN2Dift5Sie-27" value="Mus-ID" style="shape=partialRectangle;html=1;whiteSpace=wrap;connectable=0;strokeColor=inherit;overflow=hidden;fillColor=none;top=0;left=0;bottom=0;right=0;pointerEvents=1;" vertex="1" parent="SZioMdZhFIN2Dift5Sie-11">
          <mxGeometry width="60" height="35" as="geometry">
            <mxRectangle width="60" height="35" as="alternateBounds" />
          </mxGeometry>
        </mxCell>
        <mxCell id="SZioMdZhFIN2Dift5Sie-12" value="&lt;u&gt;A-ID&lt;/u&gt;" style="shape=partialRectangle;html=1;whiteSpace=wrap;connectable=0;strokeColor=inherit;overflow=hidden;fillColor=none;top=0;left=0;bottom=0;right=0;pointerEvents=1;" vertex="1" parent="SZioMdZhFIN2Dift5Sie-11">
          <mxGeometry x="60" width="60" height="35" as="geometry">
            <mxRectangle width="60" height="35" as="alternateBounds" />
          </mxGeometry>
        </mxCell>
        <mxCell id="SZioMdZhFIN2Dift5Sie-13" value="Title" style="shape=partialRectangle;html=1;whiteSpace=wrap;connectable=0;strokeColor=inherit;overflow=hidden;fillColor=none;top=0;left=0;bottom=0;right=0;pointerEvents=1;" vertex="1" parent="SZioMdZhFIN2Dift5Sie-11">
          <mxGeometry x="120" width="60" height="35" as="geometry">
            <mxRectangle width="60" height="35" as="alternateBounds" />
          </mxGeometry>
        </mxCell>
        <mxCell id="SZioMdZhFIN2Dift5Sie-14" value="Date" style="shape=partialRectangle;html=1;whiteSpace=wrap;connectable=0;strokeColor=inherit;overflow=hidden;fillColor=none;top=0;left=0;bottom=0;right=0;pointerEvents=1;" vertex="1" parent="SZioMdZhFIN2Dift5Sie-11">
          <mxGeometry x="180" width="60" height="35" as="geometry">
            <mxRectangle width="60" height="35" as="alternateBounds" />
          </mxGeometry>
        </mxCell>
        <mxCell id="SZioMdZhFIN2Dift5Sie-15" value="&lt;font style=&quot;font-size: 14px;&quot;&gt;Album&lt;/font&gt;" style="text;html=1;align=center;verticalAlign=middle;resizable=0;points=[];autosize=1;strokeColor=none;fillColor=none;" vertex="1" parent="1">
          <mxGeometry x="580" y="116" width="60" height="35" as="geometry" />
        </mxCell>
        <mxCell id="SZioMdZhFIN2Dift5Sie-16" value="" style="shape=table;startSize=0;container=1;collapsible=0;childLayout=tableLayout;" vertex="1" parent="1">
          <mxGeometry x="50" y="420" width="145" height="35" as="geometry" />
        </mxCell>
        <mxCell id="SZioMdZhFIN2Dift5Sie-17" value="" style="shape=tableRow;horizontal=0;startSize=0;swimlaneHead=0;swimlaneBody=0;strokeColor=inherit;top=0;left=0;bottom=0;right=0;collapsible=0;dropTarget=0;fillColor=none;points=[[0,0.5],[1,0.5]];portConstraint=eastwest;" vertex="1" parent="SZioMdZhFIN2Dift5Sie-16">
          <mxGeometry width="145" height="35" as="geometry" />
        </mxCell>
        <mxCell id="SZioMdZhFIN2Dift5Sie-18" value="&lt;u&gt;Name&lt;/u&gt;" style="shape=partialRectangle;html=1;whiteSpace=wrap;connectable=0;strokeColor=inherit;overflow=hidden;fillColor=none;top=0;left=0;bottom=0;right=0;pointerEvents=1;" vertex="1" parent="SZioMdZhFIN2Dift5Sie-17">
          <mxGeometry width="60" height="35" as="geometry">
            <mxRectangle width="60" height="35" as="alternateBounds" />
          </mxGeometry>
        </mxCell>
        <mxCell id="SZioMdZhFIN2Dift5Sie-19" value="Musical -key" style="shape=partialRectangle;html=1;whiteSpace=wrap;connectable=0;strokeColor=inherit;overflow=hidden;fillColor=none;top=0;left=0;bottom=0;right=0;pointerEvents=1;" vertex="1" parent="SZioMdZhFIN2Dift5Sie-17">
          <mxGeometry x="60" width="85" height="35" as="geometry">
            <mxRectangle width="85" height="35" as="alternateBounds" />
          </mxGeometry>
        </mxCell>
        <mxCell id="SZioMdZhFIN2Dift5Sie-20" value="&lt;font style=&quot;font-size: 14px;&quot;&gt;Instrument&lt;/font&gt;" style="text;html=1;align=center;verticalAlign=middle;resizable=0;points=[];autosize=1;strokeColor=none;fillColor=none;" vertex="1" parent="1">
          <mxGeometry x="45" y="385" width="85" height="35" as="geometry" />
        </mxCell>
        <mxCell id="SZioMdZhFIN2Dift5Sie-21" value="" style="shape=table;startSize=0;container=1;collapsible=0;childLayout=tableLayout;" vertex="1" parent="1">
          <mxGeometry x="580" y="370" width="120" height="35" as="geometry" />
        </mxCell>
        <mxCell id="SZioMdZhFIN2Dift5Sie-22" value="" style="shape=tableRow;horizontal=0;startSize=0;swimlaneHead=0;swimlaneBody=0;strokeColor=inherit;top=0;left=0;bottom=0;right=0;collapsible=0;dropTarget=0;fillColor=none;points=[[0,0.5],[1,0.5]];portConstraint=eastwest;" vertex="1" parent="SZioMdZhFIN2Dift5Sie-21">
          <mxGeometry width="120" height="35" as="geometry" />
        </mxCell>
        <mxCell id="SZioMdZhFIN2Dift5Sie-23" value="&lt;u&gt;S-Title&lt;/u&gt;" style="shape=partialRectangle;html=1;whiteSpace=wrap;connectable=0;strokeColor=inherit;overflow=hidden;fillColor=none;top=0;left=0;bottom=0;right=0;pointerEvents=1;" vertex="1" parent="SZioMdZhFIN2Dift5Sie-22">
          <mxGeometry width="60" height="35" as="geometry">
            <mxRectangle width="60" height="35" as="alternateBounds" />
          </mxGeometry>
        </mxCell>
        <mxCell id="SZioMdZhFIN2Dift5Sie-24" value="Author" style="shape=partialRectangle;html=1;whiteSpace=wrap;connectable=0;strokeColor=inherit;overflow=hidden;fillColor=none;top=0;left=0;bottom=0;right=0;pointerEvents=1;" vertex="1" parent="SZioMdZhFIN2Dift5Sie-22">
          <mxGeometry x="60" width="60" height="35" as="geometry">
            <mxRectangle width="60" height="35" as="alternateBounds" />
          </mxGeometry>
        </mxCell>
        <mxCell id="SZioMdZhFIN2Dift5Sie-25" value="&lt;font style=&quot;font-size: 14px;&quot;&gt;Song&lt;/font&gt;" style="text;html=1;align=center;verticalAlign=middle;resizable=0;points=[];autosize=1;strokeColor=none;fillColor=none;" vertex="1" parent="1">
          <mxGeometry x="576" y="338" width="55" height="35" as="geometry" />
        </mxCell>
        <mxCell id="SZioMdZhFIN2Dift5Sie-28" value="" style="endArrow=none;dashed=1;html=1;rounded=0;strokeColor=#FF3333;" edge="1" parent="1">
          <mxGeometry width="50" height="50" relative="1" as="geometry">
            <mxPoint x="591" y="180" as="sourcePoint" />
            <mxPoint x="631" y="180" as="targetPoint" />
          </mxGeometry>
        </mxCell>
        <mxCell id="SZioMdZhFIN2Dift5Sie-29" value="" style="curved=1;endArrow=classic;html=1;rounded=0;exitX=0;exitY=0.5;exitDx=0;exitDy=0;entryX=0.121;entryY=1.109;entryDx=0;entryDy=0;entryPerimeter=0;" edge="1" parent="1" source="SZioMdZhFIN2Dift5Sie-11" target="SZioMdZhFIN2Dift5Sie-3">
          <mxGeometry width="50" height="50" relative="1" as="geometry">
            <mxPoint x="425" y="180" as="sourcePoint" />
            <mxPoint x="145" y="240" as="targetPoint" />
            <Array as="points">
              <mxPoint x="475" y="180" />
              <mxPoint x="425" y="220" />
            </Array>
          </mxGeometry>
        </mxCell>
        <mxCell id="SZioMdZhFIN2Dift5Sie-30" value="" style="shape=table;startSize=0;container=1;collapsible=0;childLayout=tableLayout;" vertex="1" parent="1">
          <mxGeometry x="580" y="280" width="120" height="35" as="geometry" />
        </mxCell>
        <mxCell id="SZioMdZhFIN2Dift5Sie-31" value="" style="shape=tableRow;horizontal=0;startSize=0;swimlaneHead=0;swimlaneBody=0;strokeColor=inherit;top=0;left=0;bottom=0;right=0;collapsible=0;dropTarget=0;fillColor=none;points=[[0,0.5],[1,0.5]];portConstraint=eastwest;" vertex="1" parent="SZioMdZhFIN2Dift5Sie-30">
          <mxGeometry width="120" height="35" as="geometry" />
        </mxCell>
        <mxCell id="SZioMdZhFIN2Dift5Sie-32" value="Album-ID" style="shape=partialRectangle;html=1;whiteSpace=wrap;connectable=0;strokeColor=inherit;overflow=hidden;fillColor=none;top=0;left=0;bottom=0;right=0;pointerEvents=1;" vertex="1" parent="SZioMdZhFIN2Dift5Sie-31">
          <mxGeometry width="60" height="35" as="geometry">
            <mxRectangle width="60" height="35" as="alternateBounds" />
          </mxGeometry>
        </mxCell>
        <mxCell id="SZioMdZhFIN2Dift5Sie-33" value="Song-Title" style="shape=partialRectangle;html=1;whiteSpace=wrap;connectable=0;strokeColor=inherit;overflow=hidden;fillColor=none;top=0;left=0;bottom=0;right=0;pointerEvents=1;" vertex="1" parent="SZioMdZhFIN2Dift5Sie-31">
          <mxGeometry x="60" width="60" height="35" as="geometry">
            <mxRectangle width="60" height="35" as="alternateBounds" />
          </mxGeometry>
        </mxCell>
        <mxCell id="SZioMdZhFIN2Dift5Sie-36" value="&lt;font style=&quot;font-size: 14px;&quot;&gt;Album-Song&lt;/font&gt;" style="text;html=1;align=center;verticalAlign=middle;resizable=0;points=[];autosize=1;strokeColor=none;fillColor=none;" vertex="1" parent="1">
          <mxGeometry x="580" y="245" width="100" height="35" as="geometry" />
        </mxCell>
        <mxCell id="SZioMdZhFIN2Dift5Sie-37" value="" style="endArrow=none;dashed=1;html=1;rounded=0;strokeColor=#FF3333;" edge="1" parent="1">
          <mxGeometry width="50" height="50" relative="1" as="geometry">
            <mxPoint x="650" y="310" as="sourcePoint" />
            <mxPoint x="690" y="310" as="targetPoint" />
            <Array as="points">
              <mxPoint x="675" y="310" />
            </Array>
          </mxGeometry>
        </mxCell>
        <mxCell id="SZioMdZhFIN2Dift5Sie-38" value="" style="endArrow=none;dashed=1;html=1;rounded=0;strokeColor=#FF3333;" edge="1" parent="1">
          <mxGeometry width="50" height="50" relative="1" as="geometry">
            <mxPoint x="590" y="310" as="sourcePoint" />
            <mxPoint x="630" y="310" as="targetPoint" />
            <Array as="points">
              <mxPoint x="615" y="310" />
            </Array>
          </mxGeometry>
        </mxCell>
        <mxCell id="SZioMdZhFIN2Dift5Sie-39" value="" style="endArrow=none;html=1;rounded=0;" edge="1" parent="1">
          <mxGeometry width="50" height="50" relative="1" as="geometry">
            <mxPoint x="645" y="320" as="sourcePoint" />
            <mxPoint x="690" y="320" as="targetPoint" />
          </mxGeometry>
        </mxCell>
        <mxCell id="SZioMdZhFIN2Dift5Sie-41" value="" style="curved=1;endArrow=classic;html=1;rounded=0;entryX=0.365;entryY=0.971;entryDx=0;entryDy=0;entryPerimeter=0;exitX=0;exitY=0.5;exitDx=0;exitDy=0;" edge="1" parent="1" source="SZioMdZhFIN2Dift5Sie-31" target="SZioMdZhFIN2Dift5Sie-11">
          <mxGeometry width="50" height="50" relative="1" as="geometry">
            <mxPoint x="525" y="295" as="sourcePoint" />
            <mxPoint x="765" y="237.5" as="targetPoint" />
            <Array as="points">
              <mxPoint x="520" y="220" />
            </Array>
          </mxGeometry>
        </mxCell>
        <mxCell id="SZioMdZhFIN2Dift5Sie-42" value="" style="shape=table;startSize=0;container=1;collapsible=0;childLayout=tableLayout;" vertex="1" parent="1">
          <mxGeometry x="290" y="315" width="130" height="35" as="geometry" />
        </mxCell>
        <mxCell id="SZioMdZhFIN2Dift5Sie-43" value="" style="shape=tableRow;horizontal=0;startSize=0;swimlaneHead=0;swimlaneBody=0;strokeColor=inherit;top=0;left=0;bottom=0;right=0;collapsible=0;dropTarget=0;fillColor=none;points=[[0,0.5],[1,0.5]];portConstraint=eastwest;" vertex="1" parent="SZioMdZhFIN2Dift5Sie-42">
          <mxGeometry width="130" height="35" as="geometry" />
        </mxCell>
        <mxCell id="SZioMdZhFIN2Dift5Sie-44" value="Mus-ID" style="shape=partialRectangle;html=1;whiteSpace=wrap;connectable=0;strokeColor=inherit;overflow=hidden;fillColor=none;top=0;left=0;bottom=0;right=0;pointerEvents=1;" vertex="1" parent="SZioMdZhFIN2Dift5Sie-43">
          <mxGeometry width="65" height="35" as="geometry">
            <mxRectangle width="65" height="35" as="alternateBounds" />
          </mxGeometry>
        </mxCell>
        <mxCell id="SZioMdZhFIN2Dift5Sie-45" value="Song-Title" style="shape=partialRectangle;html=1;whiteSpace=wrap;connectable=0;strokeColor=inherit;overflow=hidden;fillColor=none;top=0;left=0;bottom=0;right=0;pointerEvents=1;" vertex="1" parent="SZioMdZhFIN2Dift5Sie-43">
          <mxGeometry x="65" width="65" height="35" as="geometry">
            <mxRectangle width="65" height="35" as="alternateBounds" />
          </mxGeometry>
        </mxCell>
        <mxCell id="SZioMdZhFIN2Dift5Sie-46" value="&lt;font style=&quot;font-size: 14px;&quot;&gt;Mus-Song&lt;/font&gt;" style="text;html=1;align=center;verticalAlign=middle;resizable=0;points=[];autosize=1;strokeColor=none;fillColor=none;" vertex="1" parent="1">
          <mxGeometry x="285" y="280.5" width="85" height="35" as="geometry" />
        </mxCell>
        <mxCell id="SZioMdZhFIN2Dift5Sie-47" value="" style="endArrow=none;dashed=1;html=1;rounded=0;strokeColor=#FF3333;" edge="1" parent="1">
          <mxGeometry width="50" height="50" relative="1" as="geometry">
            <mxPoint x="305" y="345" as="sourcePoint" />
            <mxPoint x="345" y="345" as="targetPoint" />
            <Array as="points">
              <mxPoint x="330" y="345" />
            </Array>
          </mxGeometry>
        </mxCell>
        <mxCell id="SZioMdZhFIN2Dift5Sie-48" value="" style="endArrow=none;dashed=1;html=1;rounded=0;strokeColor=#FF3333;" edge="1" parent="1">
          <mxGeometry width="50" height="50" relative="1" as="geometry">
            <mxPoint x="365" y="345" as="sourcePoint" />
            <mxPoint x="405" y="345" as="targetPoint" />
            <Array as="points">
              <mxPoint x="390" y="345" />
            </Array>
          </mxGeometry>
        </mxCell>
        <mxCell id="SZioMdZhFIN2Dift5Sie-49" value="" style="endArrow=none;html=1;rounded=0;" edge="1" parent="1">
          <mxGeometry width="50" height="50" relative="1" as="geometry">
            <mxPoint x="300" y="355" as="sourcePoint" />
            <mxPoint x="410" y="355" as="targetPoint" />
          </mxGeometry>
        </mxCell>
        <mxCell id="SZioMdZhFIN2Dift5Sie-50" value="" style="curved=1;endArrow=classic;html=1;rounded=0;exitX=0;exitY=0.5;exitDx=0;exitDy=0;entryX=0.116;entryY=1.131;entryDx=0;entryDy=0;entryPerimeter=0;" edge="1" parent="1" source="SZioMdZhFIN2Dift5Sie-43" target="SZioMdZhFIN2Dift5Sie-3">
          <mxGeometry width="50" height="50" relative="1" as="geometry">
            <mxPoint x="150" y="287.5" as="sourcePoint" />
            <mxPoint x="200" y="237.5" as="targetPoint" />
            <Array as="points">
              <mxPoint x="270" y="245" />
            </Array>
          </mxGeometry>
        </mxCell>
        <mxCell id="SZioMdZhFIN2Dift5Sie-51" value="" style="curved=1;endArrow=classic;html=1;rounded=0;entryX=0;entryY=0.5;entryDx=0;entryDy=0;" edge="1" parent="1" source="SZioMdZhFIN2Dift5Sie-43" target="SZioMdZhFIN2Dift5Sie-22">
          <mxGeometry width="50" height="50" relative="1" as="geometry">
            <mxPoint x="445" y="350" as="sourcePoint" />
            <mxPoint x="495" y="300" as="targetPoint" />
            <Array as="points">
              <mxPoint x="495" y="350" />
              <mxPoint x="535" y="400" />
            </Array>
          </mxGeometry>
        </mxCell>
        <mxCell id="SZioMdZhFIN2Dift5Sie-52" value="" style="curved=1;endArrow=classic;html=1;rounded=0;exitX=0.743;exitY=1.029;exitDx=0;exitDy=0;exitPerimeter=0;entryX=0.909;entryY=0.971;entryDx=0;entryDy=0;entryPerimeter=0;" edge="1" parent="1" source="SZioMdZhFIN2Dift5Sie-31" target="SZioMdZhFIN2Dift5Sie-25">
          <mxGeometry width="50" height="50" relative="1" as="geometry">
            <mxPoint x="755" y="357.5" as="sourcePoint" />
            <mxPoint x="805" y="307.5" as="targetPoint" />
            <Array as="points">
              <mxPoint x="685" y="345" />
              <mxPoint x="660" y="340" />
            </Array>
          </mxGeometry>
        </mxCell>
        <mxCell id="SZioMdZhFIN2Dift5Sie-53" value="" style="shape=table;startSize=0;container=1;collapsible=0;childLayout=tableLayout;" vertex="1" parent="1">
          <mxGeometry x="62.5" y="310" width="120" height="35" as="geometry" />
        </mxCell>
        <mxCell id="SZioMdZhFIN2Dift5Sie-54" value="" style="shape=tableRow;horizontal=0;startSize=0;swimlaneHead=0;swimlaneBody=0;strokeColor=inherit;top=0;left=0;bottom=0;right=0;collapsible=0;dropTarget=0;fillColor=none;points=[[0,0.5],[1,0.5]];portConstraint=eastwest;" vertex="1" parent="SZioMdZhFIN2Dift5Sie-53">
          <mxGeometry width="120" height="35" as="geometry" />
        </mxCell>
        <mxCell id="SZioMdZhFIN2Dift5Sie-55" value="Mus-ID" style="shape=partialRectangle;html=1;whiteSpace=wrap;connectable=0;strokeColor=inherit;overflow=hidden;fillColor=none;top=0;left=0;bottom=0;right=0;pointerEvents=1;" vertex="1" parent="SZioMdZhFIN2Dift5Sie-54">
          <mxGeometry width="60" height="35" as="geometry">
            <mxRectangle width="60" height="35" as="alternateBounds" />
          </mxGeometry>
        </mxCell>
        <mxCell id="SZioMdZhFIN2Dift5Sie-56" value="Ins-Name" style="shape=partialRectangle;html=1;whiteSpace=wrap;connectable=0;strokeColor=inherit;overflow=hidden;fillColor=none;top=0;left=0;bottom=0;right=0;pointerEvents=1;" vertex="1" parent="SZioMdZhFIN2Dift5Sie-54">
          <mxGeometry x="60" width="60" height="35" as="geometry">
            <mxRectangle width="60" height="35" as="alternateBounds" />
          </mxGeometry>
        </mxCell>
        <mxCell id="SZioMdZhFIN2Dift5Sie-57" value="&lt;font style=&quot;font-size: 14px;&quot;&gt;Mus-Instrument&lt;/font&gt;" style="text;html=1;align=center;verticalAlign=middle;resizable=0;points=[];autosize=1;strokeColor=none;fillColor=none;" vertex="1" parent="1">
          <mxGeometry x="53" y="278" width="120" height="35" as="geometry" />
        </mxCell>
        <mxCell id="SZioMdZhFIN2Dift5Sie-62" value="" style="endArrow=none;dashed=1;html=1;rounded=0;strokeColor=#FF3333;" edge="1" parent="1">
          <mxGeometry width="50" height="50" relative="1" as="geometry">
            <mxPoint x="70" y="338" as="sourcePoint" />
            <mxPoint x="110" y="338" as="targetPoint" />
            <Array as="points">
              <mxPoint x="95" y="338" />
            </Array>
          </mxGeometry>
        </mxCell>
        <mxCell id="SZioMdZhFIN2Dift5Sie-63" value="" style="endArrow=none;dashed=1;html=1;rounded=0;strokeColor=#FF3333;" edge="1" parent="1">
          <mxGeometry width="50" height="50" relative="1" as="geometry">
            <mxPoint x="130" y="338" as="sourcePoint" />
            <mxPoint x="170" y="338" as="targetPoint" />
            <Array as="points">
              <mxPoint x="155" y="338" />
            </Array>
          </mxGeometry>
        </mxCell>
        <mxCell id="SZioMdZhFIN2Dift5Sie-65" value="" style="curved=1;endArrow=classic;html=1;rounded=0;exitX=0.723;exitY=1.04;exitDx=0;exitDy=0;exitPerimeter=0;entryX=0.445;entryY=1.137;entryDx=0;entryDy=0;entryPerimeter=0;" edge="1" parent="1" source="SZioMdZhFIN2Dift5Sie-54" target="SZioMdZhFIN2Dift5Sie-20">
          <mxGeometry width="50" height="50" relative="1" as="geometry">
            <mxPoint x="160" y="400" as="sourcePoint" />
            <mxPoint x="210" y="350" as="targetPoint" />
            <Array as="points">
              <mxPoint x="170" y="395" />
            </Array>
          </mxGeometry>
        </mxCell>
        <mxCell id="SZioMdZhFIN2Dift5Sie-66" value="" style="curved=1;endArrow=classic;html=1;rounded=0;exitX=0;exitY=0.5;exitDx=0;exitDy=0;entryX=0.092;entryY=1.063;entryDx=0;entryDy=0;entryPerimeter=0;" edge="1" parent="1" source="SZioMdZhFIN2Dift5Sie-54" target="SZioMdZhFIN2Dift5Sie-3">
          <mxGeometry width="50" height="50" relative="1" as="geometry">
            <mxPoint x="15" y="335" as="sourcePoint" />
            <mxPoint x="62.5" y="255" as="targetPoint" />
            <Array as="points">
              <mxPoint x="30" y="305" />
              <mxPoint x="35" y="260" />
            </Array>
          </mxGeometry>
        </mxCell>
        <mxCell id="SZioMdZhFIN2Dift5Sie-67" value="" style="endArrow=none;html=1;rounded=0;" edge="1" parent="1">
          <mxGeometry width="50" height="50" relative="1" as="geometry">
            <mxPoint x="75" y="350" as="sourcePoint" />
            <mxPoint x="160" y="350" as="targetPoint" />
          </mxGeometry>
        </mxCell>
      </root>
    </mxGraphModel>
  </diagram>
  <diagram id="DlAB7-3DOMN-JhpPV4VS" name="Page-4">
    <mxGraphModel dx="482" dy="621" grid="1" gridSize="5" guides="1" tooltips="1" connect="1" arrows="1" fold="1" page="1" pageScale="1" pageWidth="850" pageHeight="1100" math="0" shadow="0">
      <root>
        <mxCell id="0" />
        <mxCell id="1" parent="0" />
        <mxCell id="Gn7FrtcuG7Kh4_0lIZ03-1" value="&lt;font style=&quot;font-size: 24px;&quot;&gt;4- Sales&lt;/font&gt;" style="text;html=1;align=center;verticalAlign=middle;resizable=0;points=[];autosize=1;strokeColor=none;fillColor=none;" vertex="1" parent="1">
          <mxGeometry x="46" y="51" width="110" height="45" as="geometry" />
        </mxCell>
        <mxCell id="Gn7FrtcuG7Kh4_0lIZ03-2" value="" style="shape=table;startSize=0;container=1;collapsible=0;childLayout=tableLayout;" vertex="1" parent="1">
          <mxGeometry x="80" y="155" width="205" height="35" as="geometry" />
        </mxCell>
        <mxCell id="Gn7FrtcuG7Kh4_0lIZ03-3" value="" style="shape=tableRow;horizontal=0;startSize=0;swimlaneHead=0;swimlaneBody=0;strokeColor=inherit;top=0;left=0;bottom=0;right=0;collapsible=0;dropTarget=0;fillColor=none;points=[[0,0.5],[1,0.5]];portConstraint=eastwest;" vertex="1" parent="Gn7FrtcuG7Kh4_0lIZ03-2">
          <mxGeometry width="205" height="35" as="geometry" />
        </mxCell>
        <mxCell id="Gn7FrtcuG7Kh4_0lIZ03-4" value="&lt;u&gt;Number&lt;/u&gt;" style="shape=partialRectangle;html=1;whiteSpace=wrap;connectable=0;strokeColor=inherit;overflow=hidden;fillColor=none;top=0;left=0;bottom=0;right=0;pointerEvents=1;" vertex="1" parent="Gn7FrtcuG7Kh4_0lIZ03-3">
          <mxGeometry width="68" height="35" as="geometry">
            <mxRectangle width="68" height="35" as="alternateBounds" />
          </mxGeometry>
        </mxCell>
        <mxCell id="Gn7FrtcuG7Kh4_0lIZ03-5" value="Location" style="shape=partialRectangle;html=1;whiteSpace=wrap;connectable=0;strokeColor=inherit;overflow=hidden;fillColor=none;top=0;left=0;bottom=0;right=0;pointerEvents=1;" vertex="1" parent="Gn7FrtcuG7Kh4_0lIZ03-3">
          <mxGeometry x="68" width="69" height="35" as="geometry">
            <mxRectangle width="69" height="35" as="alternateBounds" />
          </mxGeometry>
        </mxCell>
        <mxCell id="Gn7FrtcuG7Kh4_0lIZ03-34" value="Manager-ID" style="shape=partialRectangle;html=1;whiteSpace=wrap;connectable=0;strokeColor=inherit;overflow=hidden;fillColor=none;top=0;left=0;bottom=0;right=0;pointerEvents=1;" vertex="1" parent="Gn7FrtcuG7Kh4_0lIZ03-3">
          <mxGeometry x="137" width="68" height="35" as="geometry">
            <mxRectangle width="68" height="35" as="alternateBounds" />
          </mxGeometry>
        </mxCell>
        <mxCell id="Gn7FrtcuG7Kh4_0lIZ03-6" value="&lt;font style=&quot;font-size: 14px;&quot;&gt;Sales-Offices&lt;/font&gt;" style="text;html=1;align=center;verticalAlign=middle;resizable=0;points=[];autosize=1;strokeColor=none;fillColor=none;" vertex="1" parent="1">
          <mxGeometry x="75" y="125" width="105" height="35" as="geometry" />
        </mxCell>
        <mxCell id="Gn7FrtcuG7Kh4_0lIZ03-7" value="" style="shape=table;startSize=0;container=1;collapsible=0;childLayout=tableLayout;" vertex="1" parent="1">
          <mxGeometry x="80" y="270" width="235" height="35" as="geometry" />
        </mxCell>
        <mxCell id="Gn7FrtcuG7Kh4_0lIZ03-8" value="" style="shape=tableRow;horizontal=0;startSize=0;swimlaneHead=0;swimlaneBody=0;strokeColor=inherit;top=0;left=0;bottom=0;right=0;collapsible=0;dropTarget=0;fillColor=none;points=[[0,0.5],[1,0.5]];portConstraint=eastwest;" vertex="1" parent="Gn7FrtcuG7Kh4_0lIZ03-7">
          <mxGeometry width="235" height="35" as="geometry" />
        </mxCell>
        <mxCell id="Gn7FrtcuG7Kh4_0lIZ03-9" value="&lt;u&gt;E-ID&lt;/u&gt;" style="shape=partialRectangle;html=1;whiteSpace=wrap;connectable=0;strokeColor=inherit;overflow=hidden;fillColor=none;top=0;left=0;bottom=0;right=0;pointerEvents=1;" vertex="1" parent="Gn7FrtcuG7Kh4_0lIZ03-8">
          <mxGeometry width="67" height="35" as="geometry">
            <mxRectangle width="67" height="35" as="alternateBounds" />
          </mxGeometry>
        </mxCell>
        <mxCell id="Gn7FrtcuG7Kh4_0lIZ03-10" value="Name" style="shape=partialRectangle;html=1;whiteSpace=wrap;connectable=0;strokeColor=inherit;overflow=hidden;fillColor=none;top=0;left=0;bottom=0;right=0;pointerEvents=1;" vertex="1" parent="Gn7FrtcuG7Kh4_0lIZ03-8">
          <mxGeometry x="67" width="67" height="35" as="geometry">
            <mxRectangle width="67" height="35" as="alternateBounds" />
          </mxGeometry>
        </mxCell>
        <mxCell id="Gn7FrtcuG7Kh4_0lIZ03-37" value="Office-Number" style="shape=partialRectangle;html=1;whiteSpace=wrap;connectable=0;strokeColor=inherit;overflow=hidden;fillColor=none;top=0;left=0;bottom=0;right=0;pointerEvents=1;" vertex="1" parent="Gn7FrtcuG7Kh4_0lIZ03-8">
          <mxGeometry x="134" width="101" height="35" as="geometry">
            <mxRectangle width="101" height="35" as="alternateBounds" />
          </mxGeometry>
        </mxCell>
        <mxCell id="Gn7FrtcuG7Kh4_0lIZ03-11" value="&lt;font style=&quot;font-size: 14px;&quot;&gt;Employee&lt;/font&gt;" style="text;html=1;align=center;verticalAlign=middle;resizable=0;points=[];autosize=1;strokeColor=none;fillColor=none;" vertex="1" parent="1">
          <mxGeometry x="81" y="235" width="85" height="35" as="geometry" />
        </mxCell>
        <mxCell id="Gn7FrtcuG7Kh4_0lIZ03-12" value="" style="shape=table;startSize=0;container=1;collapsible=0;childLayout=tableLayout;" vertex="1" parent="1">
          <mxGeometry x="80" y="375" width="400" height="35" as="geometry" />
        </mxCell>
        <mxCell id="Gn7FrtcuG7Kh4_0lIZ03-13" value="" style="shape=tableRow;horizontal=0;startSize=0;swimlaneHead=0;swimlaneBody=0;strokeColor=inherit;top=0;left=0;bottom=0;right=0;collapsible=0;dropTarget=0;fillColor=none;points=[[0,0.5],[1,0.5]];portConstraint=eastwest;" vertex="1" parent="Gn7FrtcuG7Kh4_0lIZ03-12">
          <mxGeometry width="400" height="35" as="geometry" />
        </mxCell>
        <mxCell id="Gn7FrtcuG7Kh4_0lIZ03-14" value="&lt;u&gt;P-ID&lt;/u&gt;" style="shape=partialRectangle;html=1;whiteSpace=wrap;connectable=0;strokeColor=inherit;overflow=hidden;fillColor=none;top=0;left=0;bottom=0;right=0;pointerEvents=1;" vertex="1" parent="Gn7FrtcuG7Kh4_0lIZ03-13">
          <mxGeometry width="60" height="35" as="geometry">
            <mxRectangle width="60" height="35" as="alternateBounds" />
          </mxGeometry>
        </mxCell>
        <mxCell id="Gn7FrtcuG7Kh4_0lIZ03-15" value="Address" style="shape=partialRectangle;html=1;whiteSpace=wrap;connectable=0;strokeColor=inherit;overflow=hidden;fillColor=none;top=0;left=0;bottom=0;right=0;pointerEvents=1;" vertex="1" parent="Gn7FrtcuG7Kh4_0lIZ03-13">
          <mxGeometry x="60" width="66" height="35" as="geometry">
            <mxRectangle width="66" height="35" as="alternateBounds" />
          </mxGeometry>
        </mxCell>
        <mxCell id="Gn7FrtcuG7Kh4_0lIZ03-16" value="City" style="shape=partialRectangle;html=1;whiteSpace=wrap;connectable=0;strokeColor=inherit;overflow=hidden;fillColor=none;top=0;left=0;bottom=0;right=0;pointerEvents=1;" vertex="1" parent="Gn7FrtcuG7Kh4_0lIZ03-13">
          <mxGeometry x="126" width="49" height="35" as="geometry">
            <mxRectangle width="49" height="35" as="alternateBounds" />
          </mxGeometry>
        </mxCell>
        <mxCell id="Gn7FrtcuG7Kh4_0lIZ03-17" value="State" style="shape=partialRectangle;html=1;whiteSpace=wrap;connectable=0;strokeColor=inherit;overflow=hidden;fillColor=none;top=0;left=0;bottom=0;right=0;pointerEvents=1;" vertex="1" parent="Gn7FrtcuG7Kh4_0lIZ03-13">
          <mxGeometry x="175" width="55" height="35" as="geometry">
            <mxRectangle width="55" height="35" as="alternateBounds" />
          </mxGeometry>
        </mxCell>
        <mxCell id="Gn7FrtcuG7Kh4_0lIZ03-18" value="ZipCode" style="shape=partialRectangle;html=1;whiteSpace=wrap;connectable=0;strokeColor=inherit;overflow=hidden;fillColor=none;top=0;left=0;bottom=0;right=0;pointerEvents=1;" vertex="1" parent="Gn7FrtcuG7Kh4_0lIZ03-13">
          <mxGeometry x="230" width="65" height="35" as="geometry">
            <mxRectangle width="65" height="35" as="alternateBounds" />
          </mxGeometry>
        </mxCell>
        <mxCell id="Gn7FrtcuG7Kh4_0lIZ03-41" value="Office-Number" style="shape=partialRectangle;html=1;whiteSpace=wrap;connectable=0;strokeColor=inherit;overflow=hidden;fillColor=none;top=0;left=0;bottom=0;right=0;pointerEvents=1;" vertex="1" parent="Gn7FrtcuG7Kh4_0lIZ03-13">
          <mxGeometry x="295" width="105" height="35" as="geometry">
            <mxRectangle width="105" height="35" as="alternateBounds" />
          </mxGeometry>
        </mxCell>
        <mxCell id="Gn7FrtcuG7Kh4_0lIZ03-21" value="&lt;font style=&quot;font-size: 14px;&quot;&gt;Property&lt;/font&gt;" style="text;html=1;align=center;verticalAlign=middle;resizable=0;points=[];autosize=1;strokeColor=none;fillColor=none;" vertex="1" parent="1">
          <mxGeometry x="81" y="340" width="75" height="35" as="geometry" />
        </mxCell>
        <mxCell id="Gn7FrtcuG7Kh4_0lIZ03-22" value="" style="shape=table;startSize=0;container=1;collapsible=0;childLayout=tableLayout;" vertex="1" parent="1">
          <mxGeometry x="80" y="480" width="120" height="35" as="geometry" />
        </mxCell>
        <mxCell id="Gn7FrtcuG7Kh4_0lIZ03-23" value="" style="shape=tableRow;horizontal=0;startSize=0;swimlaneHead=0;swimlaneBody=0;strokeColor=inherit;top=0;left=0;bottom=0;right=0;collapsible=0;dropTarget=0;fillColor=none;points=[[0,0.5],[1,0.5]];portConstraint=eastwest;" vertex="1" parent="Gn7FrtcuG7Kh4_0lIZ03-22">
          <mxGeometry width="120" height="35" as="geometry" />
        </mxCell>
        <mxCell id="Gn7FrtcuG7Kh4_0lIZ03-24" value="&lt;u&gt;Owner-ID&lt;/u&gt;" style="shape=partialRectangle;html=1;whiteSpace=wrap;connectable=0;strokeColor=inherit;overflow=hidden;fillColor=none;top=0;left=0;bottom=0;right=0;pointerEvents=1;" vertex="1" parent="Gn7FrtcuG7Kh4_0lIZ03-23">
          <mxGeometry width="60" height="35" as="geometry">
            <mxRectangle width="60" height="35" as="alternateBounds" />
          </mxGeometry>
        </mxCell>
        <mxCell id="Gn7FrtcuG7Kh4_0lIZ03-25" value="Name" style="shape=partialRectangle;html=1;whiteSpace=wrap;connectable=0;strokeColor=inherit;overflow=hidden;fillColor=none;top=0;left=0;bottom=0;right=0;pointerEvents=1;" vertex="1" parent="Gn7FrtcuG7Kh4_0lIZ03-23">
          <mxGeometry x="60" width="60" height="35" as="geometry">
            <mxRectangle width="60" height="35" as="alternateBounds" />
          </mxGeometry>
        </mxCell>
        <mxCell id="Gn7FrtcuG7Kh4_0lIZ03-26" value="&lt;font style=&quot;font-size: 14px;&quot;&gt;Owner&lt;/font&gt;" style="text;html=1;align=center;verticalAlign=middle;resizable=0;points=[];autosize=1;strokeColor=none;fillColor=none;" vertex="1" parent="1">
          <mxGeometry x="71" y="446" width="60" height="35" as="geometry" />
        </mxCell>
        <mxCell id="Gn7FrtcuG7Kh4_0lIZ03-35" value="" style="endArrow=none;dashed=1;html=1;rounded=0;strokeColor=#FF3333;" edge="1" parent="1">
          <mxGeometry width="50" height="50" relative="1" as="geometry">
            <mxPoint x="220" y="185" as="sourcePoint" />
            <mxPoint x="280" y="185" as="targetPoint" />
          </mxGeometry>
        </mxCell>
        <mxCell id="Gn7FrtcuG7Kh4_0lIZ03-36" value="" style="curved=1;endArrow=classic;html=1;rounded=0;exitX=0.81;exitY=1.011;exitDx=0;exitDy=0;exitPerimeter=0;entryX=0.588;entryY=1.057;entryDx=0;entryDy=0;entryPerimeter=0;" edge="1" parent="1" source="Gn7FrtcuG7Kh4_0lIZ03-3" target="Gn7FrtcuG7Kh4_0lIZ03-11">
          <mxGeometry width="50" height="50" relative="1" as="geometry">
            <mxPoint x="475" y="350" as="sourcePoint" />
            <mxPoint x="525" y="300" as="targetPoint" />
            <Array as="points">
              <mxPoint x="205" y="225" />
              <mxPoint x="246" y="253" />
            </Array>
          </mxGeometry>
        </mxCell>
        <mxCell id="Gn7FrtcuG7Kh4_0lIZ03-39" value="" style="endArrow=none;dashed=1;html=1;rounded=0;strokeColor=#FF3333;" edge="1" parent="1">
          <mxGeometry width="50" height="50" relative="1" as="geometry">
            <mxPoint x="225" y="300" as="sourcePoint" />
            <mxPoint x="305" y="300" as="targetPoint" />
          </mxGeometry>
        </mxCell>
        <mxCell id="Gn7FrtcuG7Kh4_0lIZ03-40" value="" style="curved=1;endArrow=classic;html=1;rounded=0;exitX=0.815;exitY=0.011;exitDx=0;exitDy=0;exitPerimeter=0;entryX=0.154;entryY=1.034;entryDx=0;entryDy=0;entryPerimeter=0;" edge="1" parent="1" source="Gn7FrtcuG7Kh4_0lIZ03-8" target="Gn7FrtcuG7Kh4_0lIZ03-3">
          <mxGeometry width="50" height="50" relative="1" as="geometry">
            <mxPoint x="280" y="255" as="sourcePoint" />
            <mxPoint x="330" y="205" as="targetPoint" />
            <Array as="points">
              <mxPoint x="305" y="235" />
              <mxPoint x="175" y="215" />
            </Array>
          </mxGeometry>
        </mxCell>
        <mxCell id="Gn7FrtcuG7Kh4_0lIZ03-42" value="" style="endArrow=none;dashed=1;html=1;rounded=0;strokeColor=#FF3333;" edge="1" parent="1">
          <mxGeometry width="50" height="50" relative="1" as="geometry">
            <mxPoint x="385" y="405" as="sourcePoint" />
            <mxPoint x="465" y="405" as="targetPoint" />
          </mxGeometry>
        </mxCell>
        <mxCell id="Gn7FrtcuG7Kh4_0lIZ03-43" value="" style="curved=1;endArrow=classic;html=1;rounded=0;exitX=0.851;exitY=0.006;exitDx=0;exitDy=0;exitPerimeter=0;entryX=0.213;entryY=1.011;entryDx=0;entryDy=0;entryPerimeter=0;" edge="1" parent="1" source="Gn7FrtcuG7Kh4_0lIZ03-13" target="Gn7FrtcuG7Kh4_0lIZ03-3">
          <mxGeometry width="50" height="50" relative="1" as="geometry">
            <mxPoint x="475" y="350" as="sourcePoint" />
            <mxPoint x="380" y="120" as="targetPoint" />
            <Array as="points">
              <mxPoint x="385" y="325" />
              <mxPoint x="460" y="235" />
            </Array>
          </mxGeometry>
        </mxCell>
        <mxCell id="Gn7FrtcuG7Kh4_0lIZ03-44" value="" style="shape=table;startSize=0;container=1;collapsible=0;childLayout=tableLayout;" vertex="1" parent="1">
          <mxGeometry x="81" y="580" width="264" height="35" as="geometry" />
        </mxCell>
        <mxCell id="Gn7FrtcuG7Kh4_0lIZ03-45" value="" style="shape=tableRow;horizontal=0;startSize=0;swimlaneHead=0;swimlaneBody=0;strokeColor=inherit;top=0;left=0;bottom=0;right=0;collapsible=0;dropTarget=0;fillColor=none;points=[[0,0.5],[1,0.5]];portConstraint=eastwest;" vertex="1" parent="Gn7FrtcuG7Kh4_0lIZ03-44">
          <mxGeometry width="264" height="35" as="geometry" />
        </mxCell>
        <mxCell id="Gn7FrtcuG7Kh4_0lIZ03-46" value="Property-ID" style="shape=partialRectangle;html=1;whiteSpace=wrap;connectable=0;strokeColor=inherit;overflow=hidden;fillColor=none;top=0;left=0;bottom=0;right=0;pointerEvents=1;" vertex="1" parent="Gn7FrtcuG7Kh4_0lIZ03-45">
          <mxGeometry width="84" height="35" as="geometry">
            <mxRectangle width="84" height="35" as="alternateBounds" />
          </mxGeometry>
        </mxCell>
        <mxCell id="Gn7FrtcuG7Kh4_0lIZ03-47" value="Owner-ID" style="shape=partialRectangle;html=1;whiteSpace=wrap;connectable=0;strokeColor=inherit;overflow=hidden;fillColor=none;top=0;left=0;bottom=0;right=0;pointerEvents=1;" vertex="1" parent="Gn7FrtcuG7Kh4_0lIZ03-45">
          <mxGeometry x="84" width="90" height="35" as="geometry">
            <mxRectangle width="90" height="35" as="alternateBounds" />
          </mxGeometry>
        </mxCell>
        <mxCell id="Gn7FrtcuG7Kh4_0lIZ03-49" value="Percent-Owned" style="shape=partialRectangle;html=1;whiteSpace=wrap;connectable=0;strokeColor=inherit;overflow=hidden;fillColor=none;top=0;left=0;bottom=0;right=0;pointerEvents=1;" vertex="1" parent="Gn7FrtcuG7Kh4_0lIZ03-45">
          <mxGeometry x="174" width="90" height="35" as="geometry">
            <mxRectangle width="90" height="35" as="alternateBounds" />
          </mxGeometry>
        </mxCell>
        <mxCell id="Gn7FrtcuG7Kh4_0lIZ03-48" value="&lt;font style=&quot;font-size: 14px;&quot;&gt;Property-Owner&lt;/font&gt;" style="text;html=1;align=center;verticalAlign=middle;resizable=0;points=[];autosize=1;strokeColor=none;fillColor=none;" vertex="1" parent="1">
          <mxGeometry x="81" y="545" width="120" height="35" as="geometry" />
        </mxCell>
        <mxCell id="Gn7FrtcuG7Kh4_0lIZ03-50" value="" style="endArrow=none;dashed=1;html=1;rounded=0;strokeColor=#FF3333;" edge="1" parent="1">
          <mxGeometry width="50" height="50" relative="1" as="geometry">
            <mxPoint x="96" y="610" as="sourcePoint" />
            <mxPoint x="156" y="610" as="targetPoint" />
          </mxGeometry>
        </mxCell>
        <mxCell id="Gn7FrtcuG7Kh4_0lIZ03-51" value="" style="endArrow=none;dashed=1;html=1;rounded=0;strokeColor=#FF3333;" edge="1" parent="1">
          <mxGeometry width="50" height="50" relative="1" as="geometry">
            <mxPoint x="180" y="610" as="sourcePoint" />
            <mxPoint x="240" y="610" as="targetPoint" />
          </mxGeometry>
        </mxCell>
        <mxCell id="Gn7FrtcuG7Kh4_0lIZ03-52" value="" style="endArrow=none;html=1;rounded=0;" edge="1" parent="1">
          <mxGeometry width="50" height="50" relative="1" as="geometry">
            <mxPoint x="100" y="620" as="sourcePoint" />
            <mxPoint x="239" y="620" as="targetPoint" />
          </mxGeometry>
        </mxCell>
        <mxCell id="Gn7FrtcuG7Kh4_0lIZ03-53" value="" style="curved=1;endArrow=classic;html=1;rounded=0;exitX=0;exitY=0.5;exitDx=0;exitDy=0;entryX=0;entryY=0.5;entryDx=0;entryDy=0;" edge="1" parent="1" source="Gn7FrtcuG7Kh4_0lIZ03-45" target="Gn7FrtcuG7Kh4_0lIZ03-13">
          <mxGeometry width="50" height="50" relative="1" as="geometry">
            <mxPoint y="570" as="sourcePoint" />
            <mxPoint x="50" y="520" as="targetPoint" />
            <Array as="points">
              <mxPoint x="50" y="570" />
              <mxPoint x="35" y="510" />
            </Array>
          </mxGeometry>
        </mxCell>
        <mxCell id="Gn7FrtcuG7Kh4_0lIZ03-54" value="" style="curved=1;endArrow=classic;html=1;rounded=0;exitX=0.486;exitY=-0.069;exitDx=0;exitDy=0;exitPerimeter=0;entryX=0.263;entryY=0.96;entryDx=0;entryDy=0;entryPerimeter=0;" edge="1" parent="1" source="Gn7FrtcuG7Kh4_0lIZ03-45" target="Gn7FrtcuG7Kh4_0lIZ03-23">
          <mxGeometry width="50" height="50" relative="1" as="geometry">
            <mxPoint x="220" y="560" as="sourcePoint" />
            <mxPoint x="130" y="530" as="targetPoint" />
            <Array as="points">
              <mxPoint x="209" y="550" />
              <mxPoint x="190" y="535" />
            </Array>
          </mxGeometry>
        </mxCell>
      </root>
    </mxGraphModel>
  </diagram>
  <diagram id="txibFDBTYsjuYzblinTH" name="Page-5">
    <mxGraphModel dx="482" dy="621" grid="1" gridSize="5" guides="1" tooltips="1" connect="1" arrows="1" fold="1" page="1" pageScale="1" pageWidth="850" pageHeight="1100" math="0" shadow="0">
      <root>
        <mxCell id="0" />
        <mxCell id="1" parent="0" />
        <mxCell id="y_Vx2-pHZu0oRefeuawG-1" value="&lt;font style=&quot;font-size: 24px;&quot;&gt;5- ITI&lt;/font&gt;" style="text;html=1;align=center;verticalAlign=middle;resizable=0;points=[];autosize=1;strokeColor=none;fillColor=none;" vertex="1" parent="1">
          <mxGeometry x="40" y="40" width="75" height="45" as="geometry" />
        </mxCell>
        <mxCell id="y_Vx2-pHZu0oRefeuawG-6" value="" style="shape=table;startSize=0;container=1;collapsible=0;childLayout=tableLayout;" vertex="1" parent="1">
          <mxGeometry x="80" y="180" width="360" height="35" as="geometry" />
        </mxCell>
        <mxCell id="y_Vx2-pHZu0oRefeuawG-7" value="" style="shape=tableRow;horizontal=0;startSize=0;swimlaneHead=0;swimlaneBody=0;strokeColor=inherit;top=0;left=0;bottom=0;right=0;collapsible=0;dropTarget=0;fillColor=none;points=[[0,0.5],[1,0.5]];portConstraint=eastwest;" vertex="1" parent="y_Vx2-pHZu0oRefeuawG-6">
          <mxGeometry width="360" height="35" as="geometry" />
        </mxCell>
        <mxCell id="y_Vx2-pHZu0oRefeuawG-8" value="&lt;u&gt;St-ID&lt;/u&gt;" style="shape=partialRectangle;html=1;whiteSpace=wrap;connectable=0;strokeColor=inherit;overflow=hidden;fillColor=none;top=0;left=0;bottom=0;right=0;pointerEvents=1;" vertex="1" parent="y_Vx2-pHZu0oRefeuawG-7">
          <mxGeometry width="60" height="35" as="geometry">
            <mxRectangle width="60" height="35" as="alternateBounds" />
          </mxGeometry>
        </mxCell>
        <mxCell id="y_Vx2-pHZu0oRefeuawG-9" value="FName" style="shape=partialRectangle;html=1;whiteSpace=wrap;connectable=0;strokeColor=inherit;overflow=hidden;fillColor=none;top=0;left=0;bottom=0;right=0;pointerEvents=1;" vertex="1" parent="y_Vx2-pHZu0oRefeuawG-7">
          <mxGeometry x="60" width="60" height="35" as="geometry">
            <mxRectangle width="60" height="35" as="alternateBounds" />
          </mxGeometry>
        </mxCell>
        <mxCell id="y_Vx2-pHZu0oRefeuawG-10" value="LName" style="shape=partialRectangle;html=1;whiteSpace=wrap;connectable=0;strokeColor=inherit;overflow=hidden;fillColor=none;top=0;left=0;bottom=0;right=0;pointerEvents=1;" vertex="1" parent="y_Vx2-pHZu0oRefeuawG-7">
          <mxGeometry x="120" width="60" height="35" as="geometry">
            <mxRectangle width="60" height="35" as="alternateBounds" />
          </mxGeometry>
        </mxCell>
        <mxCell id="y_Vx2-pHZu0oRefeuawG-11" value="Address" style="shape=partialRectangle;html=1;whiteSpace=wrap;connectable=0;strokeColor=inherit;overflow=hidden;fillColor=none;top=0;left=0;bottom=0;right=0;pointerEvents=1;" vertex="1" parent="y_Vx2-pHZu0oRefeuawG-7">
          <mxGeometry x="180" width="60" height="35" as="geometry">
            <mxRectangle width="60" height="35" as="alternateBounds" />
          </mxGeometry>
        </mxCell>
        <mxCell id="y_Vx2-pHZu0oRefeuawG-12" value="Age" style="shape=partialRectangle;html=1;whiteSpace=wrap;connectable=0;strokeColor=inherit;overflow=hidden;fillColor=none;top=0;left=0;bottom=0;right=0;pointerEvents=1;" vertex="1" parent="y_Vx2-pHZu0oRefeuawG-7">
          <mxGeometry x="240" width="60" height="35" as="geometry">
            <mxRectangle width="60" height="35" as="alternateBounds" />
          </mxGeometry>
        </mxCell>
        <mxCell id="y_Vx2-pHZu0oRefeuawG-49" value="Dep-ID" style="shape=partialRectangle;html=1;whiteSpace=wrap;connectable=0;strokeColor=inherit;overflow=hidden;fillColor=none;top=0;left=0;bottom=0;right=0;pointerEvents=1;" vertex="1" parent="y_Vx2-pHZu0oRefeuawG-7">
          <mxGeometry x="300" width="60" height="35" as="geometry">
            <mxRectangle width="60" height="35" as="alternateBounds" />
          </mxGeometry>
        </mxCell>
        <mxCell id="y_Vx2-pHZu0oRefeuawG-13" value="&lt;font style=&quot;font-size: 14px;&quot;&gt;Student&lt;/font&gt;" style="text;html=1;align=center;verticalAlign=middle;resizable=0;points=[];autosize=1;strokeColor=none;fillColor=none;" vertex="1" parent="1">
          <mxGeometry x="80" y="145" width="70" height="35" as="geometry" />
        </mxCell>
        <mxCell id="y_Vx2-pHZu0oRefeuawG-14" value="" style="shape=table;startSize=0;container=1;collapsible=0;childLayout=tableLayout;" vertex="1" parent="1">
          <mxGeometry x="80" y="305" width="320" height="35" as="geometry" />
        </mxCell>
        <mxCell id="y_Vx2-pHZu0oRefeuawG-15" value="" style="shape=tableRow;horizontal=0;startSize=0;swimlaneHead=0;swimlaneBody=0;strokeColor=inherit;top=0;left=0;bottom=0;right=0;collapsible=0;dropTarget=0;fillColor=none;points=[[0,0.5],[1,0.5]];portConstraint=eastwest;" vertex="1" parent="y_Vx2-pHZu0oRefeuawG-14">
          <mxGeometry width="320" height="35" as="geometry" />
        </mxCell>
        <mxCell id="y_Vx2-pHZu0oRefeuawG-16" value="&lt;u&gt;C-ID&lt;/u&gt;" style="shape=partialRectangle;html=1;whiteSpace=wrap;connectable=0;strokeColor=inherit;overflow=hidden;fillColor=none;top=0;left=0;bottom=0;right=0;pointerEvents=1;" vertex="1" parent="y_Vx2-pHZu0oRefeuawG-15">
          <mxGeometry width="60" height="35" as="geometry">
            <mxRectangle width="60" height="35" as="alternateBounds" />
          </mxGeometry>
        </mxCell>
        <mxCell id="y_Vx2-pHZu0oRefeuawG-17" value="Name" style="shape=partialRectangle;html=1;whiteSpace=wrap;connectable=0;strokeColor=inherit;overflow=hidden;fillColor=none;top=0;left=0;bottom=0;right=0;pointerEvents=1;" vertex="1" parent="y_Vx2-pHZu0oRefeuawG-15">
          <mxGeometry x="60" width="60" height="35" as="geometry">
            <mxRectangle width="60" height="35" as="alternateBounds" />
          </mxGeometry>
        </mxCell>
        <mxCell id="y_Vx2-pHZu0oRefeuawG-18" value="Duration" style="shape=partialRectangle;html=1;whiteSpace=wrap;connectable=0;strokeColor=inherit;overflow=hidden;fillColor=none;top=0;left=0;bottom=0;right=0;pointerEvents=1;" vertex="1" parent="y_Vx2-pHZu0oRefeuawG-15">
          <mxGeometry x="120" width="60" height="35" as="geometry">
            <mxRectangle width="60" height="35" as="alternateBounds" />
          </mxGeometry>
        </mxCell>
        <mxCell id="y_Vx2-pHZu0oRefeuawG-19" value="Description" style="shape=partialRectangle;html=1;whiteSpace=wrap;connectable=0;strokeColor=inherit;overflow=hidden;fillColor=none;top=0;left=0;bottom=0;right=0;pointerEvents=1;" vertex="1" parent="y_Vx2-pHZu0oRefeuawG-15">
          <mxGeometry x="180" width="70" height="35" as="geometry">
            <mxRectangle width="70" height="35" as="alternateBounds" />
          </mxGeometry>
        </mxCell>
        <mxCell id="y_Vx2-pHZu0oRefeuawG-53" value="Topic-ID" style="shape=partialRectangle;html=1;whiteSpace=wrap;connectable=0;strokeColor=inherit;overflow=hidden;fillColor=none;top=0;left=0;bottom=0;right=0;pointerEvents=1;" vertex="1" parent="y_Vx2-pHZu0oRefeuawG-15">
          <mxGeometry x="250" width="70" height="35" as="geometry">
            <mxRectangle width="70" height="35" as="alternateBounds" />
          </mxGeometry>
        </mxCell>
        <mxCell id="y_Vx2-pHZu0oRefeuawG-20" value="&lt;font style=&quot;font-size: 14px;&quot;&gt;Course&lt;/font&gt;" style="text;html=1;align=center;verticalAlign=middle;resizable=0;points=[];autosize=1;strokeColor=none;fillColor=none;" vertex="1" parent="1">
          <mxGeometry x="80" y="270" width="65" height="35" as="geometry" />
        </mxCell>
        <mxCell id="y_Vx2-pHZu0oRefeuawG-21" value="" style="shape=table;startSize=0;container=1;collapsible=0;childLayout=tableLayout;" vertex="1" parent="1">
          <mxGeometry x="70" y="500" width="460" height="35" as="geometry" />
        </mxCell>
        <mxCell id="y_Vx2-pHZu0oRefeuawG-22" value="" style="shape=tableRow;horizontal=0;startSize=0;swimlaneHead=0;swimlaneBody=0;strokeColor=inherit;top=0;left=0;bottom=0;right=0;collapsible=0;dropTarget=0;fillColor=none;points=[[0,0.5],[1,0.5]];portConstraint=eastwest;" vertex="1" parent="y_Vx2-pHZu0oRefeuawG-21">
          <mxGeometry width="460" height="35" as="geometry" />
        </mxCell>
        <mxCell id="y_Vx2-pHZu0oRefeuawG-23" value="&lt;u&gt;Ins-ID&lt;/u&gt;" style="shape=partialRectangle;html=1;whiteSpace=wrap;connectable=0;strokeColor=inherit;overflow=hidden;fillColor=none;top=0;left=0;bottom=0;right=0;pointerEvents=1;" vertex="1" parent="y_Vx2-pHZu0oRefeuawG-22">
          <mxGeometry width="67" height="35" as="geometry">
            <mxRectangle width="67" height="35" as="alternateBounds" />
          </mxGeometry>
        </mxCell>
        <mxCell id="y_Vx2-pHZu0oRefeuawG-24" value="Name" style="shape=partialRectangle;html=1;whiteSpace=wrap;connectable=0;strokeColor=inherit;overflow=hidden;fillColor=none;top=0;left=0;bottom=0;right=0;pointerEvents=1;" vertex="1" parent="y_Vx2-pHZu0oRefeuawG-22">
          <mxGeometry x="67" width="66" height="35" as="geometry">
            <mxRectangle width="66" height="35" as="alternateBounds" />
          </mxGeometry>
        </mxCell>
        <mxCell id="y_Vx2-pHZu0oRefeuawG-25" value="Address" style="shape=partialRectangle;html=1;whiteSpace=wrap;connectable=0;strokeColor=inherit;overflow=hidden;fillColor=none;top=0;left=0;bottom=0;right=0;pointerEvents=1;" vertex="1" parent="y_Vx2-pHZu0oRefeuawG-22">
          <mxGeometry x="133" width="67" height="35" as="geometry">
            <mxRectangle width="67" height="35" as="alternateBounds" />
          </mxGeometry>
        </mxCell>
        <mxCell id="y_Vx2-pHZu0oRefeuawG-26" value="Houre-Rate" style="shape=partialRectangle;html=1;whiteSpace=wrap;connectable=0;strokeColor=inherit;overflow=hidden;fillColor=none;top=0;left=0;bottom=0;right=0;pointerEvents=1;" vertex="1" parent="y_Vx2-pHZu0oRefeuawG-22">
          <mxGeometry x="200" width="83" height="35" as="geometry">
            <mxRectangle width="83" height="35" as="alternateBounds" />
          </mxGeometry>
        </mxCell>
        <mxCell id="y_Vx2-pHZu0oRefeuawG-27" value="Salary" style="shape=partialRectangle;html=1;whiteSpace=wrap;connectable=0;strokeColor=inherit;overflow=hidden;fillColor=none;top=0;left=0;bottom=0;right=0;pointerEvents=1;" vertex="1" parent="y_Vx2-pHZu0oRefeuawG-22">
          <mxGeometry x="283" width="57" height="35" as="geometry">
            <mxRectangle width="57" height="35" as="alternateBounds" />
          </mxGeometry>
        </mxCell>
        <mxCell id="y_Vx2-pHZu0oRefeuawG-28" value="Bonus" style="shape=partialRectangle;html=1;whiteSpace=wrap;connectable=0;strokeColor=inherit;overflow=hidden;fillColor=none;top=0;left=0;bottom=0;right=0;pointerEvents=1;" vertex="1" parent="y_Vx2-pHZu0oRefeuawG-22">
          <mxGeometry x="340" width="60" height="35" as="geometry">
            <mxRectangle width="60" height="35" as="alternateBounds" />
          </mxGeometry>
        </mxCell>
        <mxCell id="y_Vx2-pHZu0oRefeuawG-46" value="Dep-ID" style="shape=partialRectangle;html=1;whiteSpace=wrap;connectable=0;strokeColor=inherit;overflow=hidden;fillColor=none;top=0;left=0;bottom=0;right=0;pointerEvents=1;" vertex="1" parent="y_Vx2-pHZu0oRefeuawG-22">
          <mxGeometry x="400" width="60" height="35" as="geometry">
            <mxRectangle width="60" height="35" as="alternateBounds" />
          </mxGeometry>
        </mxCell>
        <mxCell id="y_Vx2-pHZu0oRefeuawG-29" value="&lt;font style=&quot;font-size: 14px;&quot;&gt;Instructor&lt;/font&gt;" style="text;html=1;align=center;verticalAlign=middle;resizable=0;points=[];autosize=1;strokeColor=none;fillColor=none;" vertex="1" parent="1">
          <mxGeometry x="70" y="465" width="80" height="35" as="geometry" />
        </mxCell>
        <mxCell id="y_Vx2-pHZu0oRefeuawG-30" value="" style="shape=table;startSize=0;container=1;collapsible=0;childLayout=tableLayout;" vertex="1" parent="1">
          <mxGeometry x="70" y="585" width="280" height="35" as="geometry" />
        </mxCell>
        <mxCell id="y_Vx2-pHZu0oRefeuawG-31" value="" style="shape=tableRow;horizontal=0;startSize=0;swimlaneHead=0;swimlaneBody=0;strokeColor=inherit;top=0;left=0;bottom=0;right=0;collapsible=0;dropTarget=0;fillColor=none;points=[[0,0.5],[1,0.5]];portConstraint=eastwest;" vertex="1" parent="y_Vx2-pHZu0oRefeuawG-30">
          <mxGeometry width="280" height="35" as="geometry" />
        </mxCell>
        <mxCell id="y_Vx2-pHZu0oRefeuawG-32" value="&lt;u&gt;D-ID&lt;/u&gt;" style="shape=partialRectangle;html=1;whiteSpace=wrap;connectable=0;strokeColor=inherit;overflow=hidden;fillColor=none;top=0;left=0;bottom=0;right=0;pointerEvents=1;" vertex="1" parent="y_Vx2-pHZu0oRefeuawG-31">
          <mxGeometry width="60" height="35" as="geometry">
            <mxRectangle width="60" height="35" as="alternateBounds" />
          </mxGeometry>
        </mxCell>
        <mxCell id="y_Vx2-pHZu0oRefeuawG-33" value="Name" style="shape=partialRectangle;html=1;whiteSpace=wrap;connectable=0;strokeColor=inherit;overflow=hidden;fillColor=none;top=0;left=0;bottom=0;right=0;pointerEvents=1;" vertex="1" parent="y_Vx2-pHZu0oRefeuawG-31">
          <mxGeometry x="60" width="60" height="35" as="geometry">
            <mxRectangle width="60" height="35" as="alternateBounds" />
          </mxGeometry>
        </mxCell>
        <mxCell id="y_Vx2-pHZu0oRefeuawG-42" value="Manager-ID" style="shape=partialRectangle;html=1;whiteSpace=wrap;connectable=0;strokeColor=inherit;overflow=hidden;fillColor=none;top=0;left=0;bottom=0;right=0;pointerEvents=1;" vertex="1" parent="y_Vx2-pHZu0oRefeuawG-31">
          <mxGeometry x="120" width="70" height="35" as="geometry">
            <mxRectangle width="70" height="35" as="alternateBounds" />
          </mxGeometry>
        </mxCell>
        <mxCell id="y_Vx2-pHZu0oRefeuawG-45" value="MG-Hiring-Date" style="shape=partialRectangle;html=1;whiteSpace=wrap;connectable=0;strokeColor=inherit;overflow=hidden;fillColor=none;top=0;left=0;bottom=0;right=0;pointerEvents=1;" vertex="1" parent="y_Vx2-pHZu0oRefeuawG-31">
          <mxGeometry x="190" width="90" height="35" as="geometry">
            <mxRectangle width="90" height="35" as="alternateBounds" />
          </mxGeometry>
        </mxCell>
        <mxCell id="y_Vx2-pHZu0oRefeuawG-35" value="&lt;font style=&quot;font-size: 14px;&quot;&gt;Department&lt;/font&gt;" style="text;html=1;align=center;verticalAlign=middle;resizable=0;points=[];autosize=1;strokeColor=none;fillColor=none;" vertex="1" parent="1">
          <mxGeometry x="70" y="550" width="95" height="35" as="geometry" />
        </mxCell>
        <mxCell id="y_Vx2-pHZu0oRefeuawG-36" value="" style="shape=table;startSize=0;container=1;collapsible=0;childLayout=tableLayout;" vertex="1" parent="1">
          <mxGeometry x="510" y="330" width="120" height="35" as="geometry" />
        </mxCell>
        <mxCell id="y_Vx2-pHZu0oRefeuawG-37" value="" style="shape=tableRow;horizontal=0;startSize=0;swimlaneHead=0;swimlaneBody=0;strokeColor=inherit;top=0;left=0;bottom=0;right=0;collapsible=0;dropTarget=0;fillColor=none;points=[[0,0.5],[1,0.5]];portConstraint=eastwest;" vertex="1" parent="y_Vx2-pHZu0oRefeuawG-36">
          <mxGeometry width="120" height="35" as="geometry" />
        </mxCell>
        <mxCell id="y_Vx2-pHZu0oRefeuawG-38" value="&lt;u&gt;T-ID&lt;/u&gt;" style="shape=partialRectangle;html=1;whiteSpace=wrap;connectable=0;strokeColor=inherit;overflow=hidden;fillColor=none;top=0;left=0;bottom=0;right=0;pointerEvents=1;" vertex="1" parent="y_Vx2-pHZu0oRefeuawG-37">
          <mxGeometry width="60" height="35" as="geometry">
            <mxRectangle width="60" height="35" as="alternateBounds" />
          </mxGeometry>
        </mxCell>
        <mxCell id="y_Vx2-pHZu0oRefeuawG-39" value="Name" style="shape=partialRectangle;html=1;whiteSpace=wrap;connectable=0;strokeColor=inherit;overflow=hidden;fillColor=none;top=0;left=0;bottom=0;right=0;pointerEvents=1;" vertex="1" parent="y_Vx2-pHZu0oRefeuawG-37">
          <mxGeometry x="60" width="60" height="35" as="geometry">
            <mxRectangle width="60" height="35" as="alternateBounds" />
          </mxGeometry>
        </mxCell>
        <mxCell id="y_Vx2-pHZu0oRefeuawG-41" value="&lt;font style=&quot;font-size: 14px;&quot;&gt;Topic&lt;/font&gt;" style="text;html=1;align=center;verticalAlign=middle;resizable=0;points=[];autosize=1;strokeColor=none;fillColor=none;" vertex="1" parent="1">
          <mxGeometry x="510" y="295" width="55" height="35" as="geometry" />
        </mxCell>
        <mxCell id="y_Vx2-pHZu0oRefeuawG-43" value="" style="endArrow=none;dashed=1;html=1;rounded=0;strokeColor=#FF3333;" edge="1" parent="1">
          <mxGeometry width="50" height="50" relative="1" as="geometry">
            <mxPoint x="255" y="615" as="sourcePoint" />
            <mxPoint x="195" y="615" as="targetPoint" />
          </mxGeometry>
        </mxCell>
        <mxCell id="y_Vx2-pHZu0oRefeuawG-44" value="" style="curved=1;endArrow=classic;html=1;rounded=0;entryX=0.067;entryY=0.954;entryDx=0;entryDy=0;entryPerimeter=0;exitX=0.614;exitY=0.074;exitDx=0;exitDy=0;exitPerimeter=0;" edge="1" parent="1" source="y_Vx2-pHZu0oRefeuawG-31" target="y_Vx2-pHZu0oRefeuawG-22">
          <mxGeometry width="50" height="50" relative="1" as="geometry">
            <mxPoint x="200" y="580" as="sourcePoint" />
            <mxPoint x="250" y="530" as="targetPoint" />
            <Array as="points">
              <mxPoint x="225" y="550" />
            </Array>
          </mxGeometry>
        </mxCell>
        <mxCell id="y_Vx2-pHZu0oRefeuawG-47" value="" style="endArrow=none;dashed=1;html=1;rounded=0;strokeColor=#FF3333;" edge="1" parent="1">
          <mxGeometry width="50" height="50" relative="1" as="geometry">
            <mxPoint x="525" y="530" as="sourcePoint" />
            <mxPoint x="475" y="530" as="targetPoint" />
          </mxGeometry>
        </mxCell>
        <mxCell id="y_Vx2-pHZu0oRefeuawG-48" value="" style="curved=1;endArrow=classic;html=1;rounded=0;entryX=0.113;entryY=0.989;entryDx=0;entryDy=0;entryPerimeter=0;" edge="1" parent="1" target="y_Vx2-pHZu0oRefeuawG-31">
          <mxGeometry width="50" height="50" relative="1" as="geometry">
            <mxPoint x="505" y="535" as="sourcePoint" />
            <mxPoint x="130" y="665" as="targetPoint" />
            <Array as="points">
              <mxPoint x="400" y="665" />
              <mxPoint x="180" y="670" />
            </Array>
          </mxGeometry>
        </mxCell>
        <mxCell id="y_Vx2-pHZu0oRefeuawG-50" value="" style="endArrow=none;dashed=1;html=1;rounded=0;strokeColor=#FF3333;" edge="1" parent="1">
          <mxGeometry width="50" height="50" relative="1" as="geometry">
            <mxPoint x="430" y="210" as="sourcePoint" />
            <mxPoint x="385" y="210" as="targetPoint" />
          </mxGeometry>
        </mxCell>
        <mxCell id="y_Vx2-pHZu0oRefeuawG-51" value="" style="curved=1;endArrow=classic;html=1;rounded=0;entryX=0;entryY=0.5;entryDx=0;entryDy=0;" edge="1" parent="1" target="y_Vx2-pHZu0oRefeuawG-31">
          <mxGeometry width="50" height="50" relative="1" as="geometry">
            <mxPoint x="395" y="180" as="sourcePoint" />
            <mxPoint x="15" y="475" as="targetPoint" />
            <Array as="points">
              <mxPoint x="20" y="95" />
              <mxPoint x="50" y="235" />
              <mxPoint x="40" y="390" />
              <mxPoint x="50" y="545" />
            </Array>
          </mxGeometry>
        </mxCell>
        <mxCell id="y_Vx2-pHZu0oRefeuawG-54" value="" style="endArrow=none;dashed=1;html=1;rounded=0;strokeColor=#FF3333;" edge="1" parent="1">
          <mxGeometry width="50" height="50" relative="1" as="geometry">
            <mxPoint x="385" y="335" as="sourcePoint" />
            <mxPoint x="340" y="335" as="targetPoint" />
          </mxGeometry>
        </mxCell>
        <mxCell id="y_Vx2-pHZu0oRefeuawG-55" value="" style="curved=1;endArrow=classic;html=1;rounded=0;exitX=1;exitY=0.5;exitDx=0;exitDy=0;entryX=0;entryY=0.5;entryDx=0;entryDy=0;" edge="1" parent="1" source="y_Vx2-pHZu0oRefeuawG-15" target="y_Vx2-pHZu0oRefeuawG-37">
          <mxGeometry width="50" height="50" relative="1" as="geometry">
            <mxPoint x="460" y="325" as="sourcePoint" />
            <mxPoint x="510" y="275" as="targetPoint" />
            <Array as="points">
              <mxPoint x="480" y="360" />
              <mxPoint x="485" y="315" />
            </Array>
          </mxGeometry>
        </mxCell>
        <mxCell id="y_Vx2-pHZu0oRefeuawG-60" value="" style="shape=table;startSize=0;container=1;collapsible=0;childLayout=tableLayout;" vertex="1" parent="1">
          <mxGeometry x="510" y="225" width="190" height="35" as="geometry" />
        </mxCell>
        <mxCell id="y_Vx2-pHZu0oRefeuawG-61" value="" style="shape=tableRow;horizontal=0;startSize=0;swimlaneHead=0;swimlaneBody=0;strokeColor=inherit;top=0;left=0;bottom=0;right=0;collapsible=0;dropTarget=0;fillColor=none;points=[[0,0.5],[1,0.5]];portConstraint=eastwest;" vertex="1" parent="y_Vx2-pHZu0oRefeuawG-60">
          <mxGeometry width="190" height="35" as="geometry" />
        </mxCell>
        <mxCell id="y_Vx2-pHZu0oRefeuawG-62" value="St-ID" style="shape=partialRectangle;html=1;whiteSpace=wrap;connectable=0;strokeColor=inherit;overflow=hidden;fillColor=none;top=0;left=0;bottom=0;right=0;pointerEvents=1;" vertex="1" parent="y_Vx2-pHZu0oRefeuawG-61">
          <mxGeometry width="63" height="35" as="geometry">
            <mxRectangle width="63" height="35" as="alternateBounds" />
          </mxGeometry>
        </mxCell>
        <mxCell id="y_Vx2-pHZu0oRefeuawG-63" value="Course-ID" style="shape=partialRectangle;html=1;whiteSpace=wrap;connectable=0;strokeColor=inherit;overflow=hidden;fillColor=none;top=0;left=0;bottom=0;right=0;pointerEvents=1;" vertex="1" parent="y_Vx2-pHZu0oRefeuawG-61">
          <mxGeometry x="63" width="72" height="35" as="geometry">
            <mxRectangle width="72" height="35" as="alternateBounds" />
          </mxGeometry>
        </mxCell>
        <mxCell id="y_Vx2-pHZu0oRefeuawG-64" value="Grade" style="shape=partialRectangle;html=1;whiteSpace=wrap;connectable=0;strokeColor=inherit;overflow=hidden;fillColor=none;top=0;left=0;bottom=0;right=0;pointerEvents=1;" vertex="1" parent="y_Vx2-pHZu0oRefeuawG-61">
          <mxGeometry x="135" width="55" height="35" as="geometry">
            <mxRectangle width="55" height="35" as="alternateBounds" />
          </mxGeometry>
        </mxCell>
        <mxCell id="y_Vx2-pHZu0oRefeuawG-65" value="&lt;font style=&quot;font-size: 14px;&quot;&gt;Student-Course&lt;/font&gt;" style="text;html=1;align=center;verticalAlign=middle;resizable=0;points=[];autosize=1;strokeColor=none;fillColor=none;" vertex="1" parent="1">
          <mxGeometry x="510" y="190" width="120" height="35" as="geometry" />
        </mxCell>
        <mxCell id="y_Vx2-pHZu0oRefeuawG-66" value="" style="endArrow=none;dashed=1;html=1;rounded=0;strokeColor=#FF3333;" edge="1" parent="1">
          <mxGeometry width="50" height="50" relative="1" as="geometry">
            <mxPoint x="560" y="255" as="sourcePoint" />
            <mxPoint x="525" y="255" as="targetPoint" />
          </mxGeometry>
        </mxCell>
        <mxCell id="y_Vx2-pHZu0oRefeuawG-67" value="" style="endArrow=none;dashed=1;html=1;rounded=0;strokeColor=#FF3333;" edge="1" parent="1">
          <mxGeometry width="50" height="50" relative="1" as="geometry">
            <mxPoint x="632.5" y="255" as="sourcePoint" />
            <mxPoint x="577.5" y="255" as="targetPoint" />
          </mxGeometry>
        </mxCell>
        <mxCell id="y_Vx2-pHZu0oRefeuawG-68" value="" style="curved=1;endArrow=classic;html=1;rounded=0;exitX=0;exitY=0.5;exitDx=0;exitDy=0;entryX=0.057;entryY=0.983;entryDx=0;entryDy=0;entryPerimeter=0;" edge="1" parent="1" source="y_Vx2-pHZu0oRefeuawG-61" target="y_Vx2-pHZu0oRefeuawG-7">
          <mxGeometry width="50" height="50" relative="1" as="geometry">
            <mxPoint x="500" y="225" as="sourcePoint" />
            <mxPoint x="95" y="230" as="targetPoint" />
            <Array as="points">
              <mxPoint x="505" y="260" />
            </Array>
          </mxGeometry>
        </mxCell>
        <mxCell id="y_Vx2-pHZu0oRefeuawG-69" value="" style="curved=1;endArrow=classic;html=1;rounded=0;entryX=0.126;entryY=-0.051;entryDx=0;entryDy=0;entryPerimeter=0;exitX=0.583;exitY=1.04;exitDx=0;exitDy=0;exitPerimeter=0;" edge="1" parent="1" source="y_Vx2-pHZu0oRefeuawG-61" target="y_Vx2-pHZu0oRefeuawG-15">
          <mxGeometry width="50" height="50" relative="1" as="geometry">
            <mxPoint x="651" y="269" as="sourcePoint" />
            <mxPoint x="435" y="265" as="targetPoint" />
            <Array as="points">
              <mxPoint x="430" y="303" />
              <mxPoint x="385" y="265" />
            </Array>
          </mxGeometry>
        </mxCell>
        <mxCell id="y_Vx2-pHZu0oRefeuawG-70" value="" style="endArrow=none;html=1;rounded=0;" edge="1" parent="1">
          <mxGeometry width="50" height="50" relative="1" as="geometry">
            <mxPoint x="515" y="265" as="sourcePoint" />
            <mxPoint x="625" y="265" as="targetPoint" />
          </mxGeometry>
        </mxCell>
        <mxCell id="y_Vx2-pHZu0oRefeuawG-71" value="" style="shape=table;startSize=0;container=1;collapsible=0;childLayout=tableLayout;" vertex="1" parent="1">
          <mxGeometry x="510" y="420" width="195" height="37.5" as="geometry" />
        </mxCell>
        <mxCell id="y_Vx2-pHZu0oRefeuawG-72" value="" style="shape=tableRow;horizontal=0;startSize=0;swimlaneHead=0;swimlaneBody=0;strokeColor=inherit;top=0;left=0;bottom=0;right=0;collapsible=0;dropTarget=0;fillColor=none;points=[[0,0.5],[1,0.5]];portConstraint=eastwest;" vertex="1" parent="y_Vx2-pHZu0oRefeuawG-71">
          <mxGeometry width="195" height="38" as="geometry" />
        </mxCell>
        <mxCell id="y_Vx2-pHZu0oRefeuawG-73" value="Course-ID" style="shape=partialRectangle;html=1;whiteSpace=wrap;connectable=0;strokeColor=inherit;overflow=hidden;fillColor=none;top=0;left=0;bottom=0;right=0;pointerEvents=1;" vertex="1" parent="y_Vx2-pHZu0oRefeuawG-72">
          <mxGeometry width="60" height="38" as="geometry">
            <mxRectangle width="60" height="38" as="alternateBounds" />
          </mxGeometry>
        </mxCell>
        <mxCell id="y_Vx2-pHZu0oRefeuawG-74" value="Ins-ID" style="shape=partialRectangle;html=1;whiteSpace=wrap;connectable=0;strokeColor=inherit;overflow=hidden;fillColor=none;top=0;left=0;bottom=0;right=0;pointerEvents=1;" vertex="1" parent="y_Vx2-pHZu0oRefeuawG-72">
          <mxGeometry x="60" width="60" height="38" as="geometry">
            <mxRectangle width="60" height="38" as="alternateBounds" />
          </mxGeometry>
        </mxCell>
        <mxCell id="y_Vx2-pHZu0oRefeuawG-75" value="Evaluation" style="shape=partialRectangle;html=1;whiteSpace=wrap;connectable=0;strokeColor=inherit;overflow=hidden;fillColor=none;top=0;left=0;bottom=0;right=0;pointerEvents=1;" vertex="1" parent="y_Vx2-pHZu0oRefeuawG-72">
          <mxGeometry x="120" width="75" height="38" as="geometry">
            <mxRectangle width="75" height="38" as="alternateBounds" />
          </mxGeometry>
        </mxCell>
        <mxCell id="y_Vx2-pHZu0oRefeuawG-76" value="&lt;font style=&quot;font-size: 14px;&quot;&gt;Course-Instructor&lt;/font&gt;" style="text;html=1;align=center;verticalAlign=middle;resizable=0;points=[];autosize=1;strokeColor=none;fillColor=none;" vertex="1" parent="1">
          <mxGeometry x="510" y="385" width="130" height="35" as="geometry" />
        </mxCell>
        <mxCell id="y_Vx2-pHZu0oRefeuawG-77" value="" style="endArrow=none;dashed=1;html=1;rounded=0;strokeColor=#FF3333;" edge="1" parent="1">
          <mxGeometry width="50" height="50" relative="1" as="geometry">
            <mxPoint x="565" y="452.5" as="sourcePoint" />
            <mxPoint x="520" y="452.5" as="targetPoint" />
          </mxGeometry>
        </mxCell>
        <mxCell id="y_Vx2-pHZu0oRefeuawG-78" value="" style="endArrow=none;dashed=1;html=1;rounded=0;strokeColor=#FF3333;" edge="1" parent="1">
          <mxGeometry width="50" height="50" relative="1" as="geometry">
            <mxPoint x="625" y="452.5" as="sourcePoint" />
            <mxPoint x="580" y="452.5" as="targetPoint" />
          </mxGeometry>
        </mxCell>
        <mxCell id="y_Vx2-pHZu0oRefeuawG-79" value="" style="endArrow=none;html=1;rounded=0;" edge="1" parent="1">
          <mxGeometry width="50" height="50" relative="1" as="geometry">
            <mxPoint x="515" y="465" as="sourcePoint" />
            <mxPoint x="625" y="465" as="targetPoint" />
          </mxGeometry>
        </mxCell>
        <mxCell id="y_Vx2-pHZu0oRefeuawG-80" value="" style="curved=1;endArrow=classic;html=1;rounded=0;exitX=0;exitY=0.5;exitDx=0;exitDy=0;entryX=0.086;entryY=1.069;entryDx=0;entryDy=0;entryPerimeter=0;" edge="1" parent="1" source="y_Vx2-pHZu0oRefeuawG-72" target="y_Vx2-pHZu0oRefeuawG-15">
          <mxGeometry width="50" height="50" relative="1" as="geometry">
            <mxPoint x="330" y="450" as="sourcePoint" />
            <mxPoint x="380" y="400" as="targetPoint" />
            <Array as="points">
              <mxPoint x="380" y="450" />
              <mxPoint x="330" y="400" />
            </Array>
          </mxGeometry>
        </mxCell>
        <mxCell id="y_Vx2-pHZu0oRefeuawG-81" value="" style="curved=1;endArrow=classic;html=1;rounded=0;exitX=0.447;exitY=1.032;exitDx=0;exitDy=0;exitPerimeter=0;entryX=0.111;entryY=0.023;entryDx=0;entryDy=0;entryPerimeter=0;" edge="1" parent="1" source="y_Vx2-pHZu0oRefeuawG-72" target="y_Vx2-pHZu0oRefeuawG-22">
          <mxGeometry width="50" height="50" relative="1" as="geometry">
            <mxPoint x="240" y="480" as="sourcePoint" />
            <mxPoint x="290" y="430" as="targetPoint" />
            <Array as="points">
              <mxPoint x="597" y="500" />
              <mxPoint x="280" y="459" />
            </Array>
          </mxGeometry>
        </mxCell>
      </root>
    </mxGraphModel>
  </diagram>
</mxfile>
